<svg width="249" height="150" viewBox="0 0 249 150" fill="none" xmlns="http://www.w3.org/2000/svg">
<g clip-path="url(#clip0_212_693)">
<circle cx="125" cy="75" r="144.745" transform="rotate(90.4989 125 75)" fill="#5E17EB"/>
<g filter="url(#filter0_f_212_693)">
<circle cx="124.998" cy="75.0003" r="128.24" transform="rotate(90.4989 124.998 75.0003)" fill="url(#paint0_linear_212_693)"/>
</g>
<circle cx="124.998" cy="75.0016" r="102.531" transform="rotate(90.4989 124.998 75.0016)" fill="#5E17EB"/>
<g filter="url(#filter1_f_212_693)">
<circle cx="124.992" cy="75.0093" r="76.0616" transform="rotate(-89.6431 124.992 75.0093)" fill="url(#paint1_linear_212_693)"/>
</g>
<circle cx="125" cy="74.9986" r="51.7219" transform="rotate(90.4989 125 74.9986)" fill="url(#paint2_radial_212_693)"/>
<g clip-path="url(#clip1_212_693)">
<g opacity="0.25">
<path opacity="0.25" d="M0 149.399C10.4764 149.399 10.4764 155.957 20.9528 155.957C31.4292 155.957 31.4292 149.399 41.9014 149.399C52.3737 149.399 52.3778 155.957 62.8542 155.957C73.3306 155.957 73.3306 149.399 83.807 149.399C94.2834 149.399 94.2834 155.957 104.756 155.957C115.228 155.957 115.232 149.399 125.708 149.399C136.185 149.399 136.185 155.957 146.661 155.957C157.138 155.957 157.138 149.399 167.614 149.399C178.09 149.399 178.086 155.957 188.563 155.957C199.039 155.957 199.039 149.399 209.515 149.399C219.992 149.399 219.992 155.957 230.464 155.957C240.936 155.957 240.94 149.399 251.417 149.399C261.893 149.399 261.893 155.957 272.374 155.957C282.854 155.957 282.846 149.399 293.322 149.399C303.799 149.399 303.803 155.957 314.279 155.957C324.756 155.957 324.756 149.399 335.228 149.399C345.7 149.399 345.704 155.957 356.181 155.957C366.657 155.957 366.657 149.399 377.138 149.399C387.618 149.399 387.614 155.957 398.09 155.957C408.567 155.957 408.567 149.399 419.043 149.399C429.52 149.399 429.524 155.957 440 155.957" stroke="white" stroke-miterlimit="10"/>
<path opacity="0.25" d="M0 146.53C10.4764 146.53 10.4764 153.088 20.9528 153.088C31.4292 153.088 31.4292 146.53 41.9014 146.53C52.3737 146.53 52.3778 153.088 62.8542 153.088C73.3306 153.088 73.3306 146.53 83.807 146.53C94.2834 146.53 94.2834 153.088 104.756 153.088C115.228 153.088 115.232 146.53 125.708 146.53C136.185 146.53 136.185 153.088 146.661 153.088C157.138 153.088 157.138 146.53 167.614 146.53C178.09 146.53 178.086 153.088 188.563 153.088C199.039 153.088 199.039 146.53 209.515 146.53C219.992 146.53 219.992 153.088 230.464 153.088C240.936 153.088 240.94 146.53 251.417 146.53C261.893 146.53 261.893 153.088 272.374 153.088C282.854 153.088 282.846 146.53 293.322 146.53C303.799 146.53 303.803 153.088 314.279 153.088C324.756 153.088 324.756 146.53 335.228 146.53C345.7 146.53 345.704 153.088 356.181 153.088C366.657 153.088 366.657 146.53 377.138 146.53C387.618 146.53 387.614 153.088 398.09 153.088C408.567 153.088 408.567 146.53 419.043 146.53C429.52 146.53 429.524 153.088 440 153.088" stroke="white" stroke-miterlimit="10"/>
<path opacity="0.25" d="M0 143.661C10.4764 143.661 10.4764 150.219 20.9528 150.219C31.4292 150.219 31.4292 143.661 41.9014 143.661C52.3737 143.661 52.3778 150.219 62.8542 150.219C73.3306 150.219 73.3306 143.661 83.807 143.661C94.2834 143.661 94.2834 150.219 104.756 150.219C115.228 150.219 115.232 143.661 125.708 143.661C136.185 143.661 136.185 150.219 146.661 150.219C157.138 150.219 157.138 143.661 167.614 143.661C178.09 143.661 178.086 150.219 188.563 150.219C199.039 150.219 199.039 143.661 209.515 143.661C219.992 143.661 219.992 150.219 230.464 150.219C240.936 150.219 240.94 143.661 251.417 143.661C261.893 143.661 261.893 150.219 272.374 150.219C282.854 150.219 282.846 143.661 293.322 143.661C303.799 143.661 303.803 150.219 314.279 150.219C324.756 150.219 324.756 143.661 335.228 143.661C345.7 143.661 345.704 150.219 356.181 150.219C366.657 150.219 366.657 143.661 377.138 143.661C387.618 143.661 387.614 150.219 398.09 150.219C408.567 150.219 408.567 143.661 419.043 143.661C429.52 143.661 429.524 150.219 440 150.219" stroke="white" stroke-miterlimit="10"/>
<path opacity="0.25" d="M0 140.792C10.4764 140.792 10.4764 147.35 20.9528 147.35C31.4292 147.35 31.4292 140.792 41.9014 140.792C52.3737 140.792 52.3778 147.35 62.8542 147.35C73.3306 147.35 73.3306 140.792 83.807 140.792C94.2834 140.792 94.2834 147.35 104.756 147.35C115.228 147.35 115.232 140.792 125.708 140.792C136.185 140.792 136.185 147.35 146.661 147.35C157.138 147.35 157.138 140.792 167.614 140.792C178.09 140.792 178.086 147.35 188.563 147.35C199.039 147.35 199.039 140.792 209.515 140.792C219.992 140.792 219.992 147.35 230.464 147.35C240.936 147.35 240.94 140.792 251.417 140.792C261.893 140.792 261.893 147.35 272.374 147.35C282.854 147.35 282.846 140.792 293.322 140.792C303.799 140.792 303.803 147.35 314.279 147.35C324.756 147.35 324.756 140.792 335.228 140.792C345.7 140.792 345.704 147.35 356.181 147.35C366.657 147.35 366.657 140.792 377.138 140.792C387.618 140.792 387.614 147.35 398.09 147.35C408.567 147.35 408.567 140.792 419.043 140.792C429.52 140.792 429.524 147.35 440 147.35" stroke="white" stroke-miterlimit="10"/>
<path opacity="0.25" d="M0 137.923C10.4764 137.923 10.4764 144.481 20.9528 144.481C31.4292 144.481 31.4292 137.923 41.9014 137.923C52.3737 137.923 52.3778 144.481 62.8542 144.481C73.3306 144.481 73.3306 137.923 83.807 137.923C94.2834 137.923 94.2834 144.481 104.756 144.481C115.228 144.481 115.232 137.923 125.708 137.923C136.185 137.923 136.185 144.481 146.661 144.481C157.138 144.481 157.138 137.923 167.614 137.923C178.09 137.923 178.086 144.481 188.563 144.481C199.039 144.481 199.039 137.923 209.515 137.923C219.992 137.923 219.992 144.481 230.464 144.481C240.936 144.481 240.94 137.923 251.417 137.923C261.893 137.923 261.893 144.481 272.374 144.481C282.854 144.481 282.846 137.923 293.322 137.923C303.799 137.923 303.803 144.481 314.279 144.481C324.756 144.481 324.756 137.923 335.228 137.923C345.7 137.923 345.704 144.481 356.181 144.481C366.657 144.481 366.657 137.923 377.138 137.923C387.618 137.923 387.614 144.481 398.09 144.481C408.567 144.481 408.567 137.923 419.043 137.923C429.52 137.923 429.524 144.481 440 144.481" stroke="white" stroke-miterlimit="10"/>
<path opacity="0.25" d="M0 135.054C10.4764 135.054 10.4764 141.612 20.9528 141.612C31.4292 141.612 31.4292 135.054 41.9014 135.054C52.3737 135.054 52.3778 141.612 62.8542 141.612C73.3306 141.612 73.3306 135.054 83.807 135.054C94.2834 135.054 94.2834 141.612 104.756 141.612C115.228 141.612 115.232 135.054 125.708 135.054C136.185 135.054 136.185 141.612 146.661 141.612C157.138 141.612 157.138 135.054 167.614 135.054C178.09 135.054 178.086 141.612 188.563 141.612C199.039 141.612 199.039 135.054 209.515 135.054C219.992 135.054 219.992 141.612 230.464 141.612C240.936 141.612 240.94 135.054 251.417 135.054C261.893 135.054 261.893 141.612 272.374 141.612C282.854 141.612 282.846 135.054 293.322 135.054C303.799 135.054 303.803 141.612 314.279 141.612C324.756 141.612 324.756 135.054 335.228 135.054C345.7 135.054 345.704 141.612 356.181 141.612C366.657 141.612 366.657 135.054 377.138 135.054C387.618 135.054 387.614 141.612 398.09 141.612C408.567 141.612 408.567 135.054 419.043 135.054C429.52 135.054 429.524 141.612 440 141.612" stroke="white" stroke-miterlimit="10"/>
<path opacity="0.25" d="M0 132.185C10.4764 132.185 10.4764 138.743 20.9528 138.743C31.4292 138.743 31.4292 132.185 41.9014 132.185C52.3737 132.185 52.3778 138.743 62.8542 138.743C73.3306 138.743 73.3306 132.185 83.807 132.185C94.2834 132.185 94.2834 138.743 104.756 138.743C115.228 138.743 115.232 132.185 125.708 132.185C136.185 132.185 136.185 138.743 146.661 138.743C157.138 138.743 157.138 132.185 167.614 132.185C178.09 132.185 178.086 138.743 188.563 138.743C199.039 138.743 199.039 132.185 209.515 132.185C219.992 132.185 219.992 138.743 230.464 138.743C240.936 138.743 240.94 132.185 251.417 132.185C261.893 132.185 261.893 138.743 272.374 138.743C282.854 138.743 282.846 132.185 293.322 132.185C303.799 132.185 303.803 138.743 314.279 138.743C324.756 138.743 324.756 132.185 335.228 132.185C345.7 132.185 345.704 138.743 356.181 138.743C366.657 138.743 366.657 132.185 377.138 132.185C387.618 132.185 387.614 138.743 398.09 138.743C408.567 138.743 408.567 132.185 419.043 132.185C429.52 132.185 429.524 138.743 440 138.743" stroke="white" stroke-miterlimit="10"/>
<path opacity="0.25" d="M0 129.315C10.4764 129.315 10.4764 135.873 20.9528 135.873C31.4292 135.873 31.4292 129.315 41.9014 129.315C52.3737 129.315 52.3778 135.873 62.8542 135.873C73.3306 135.873 73.3306 129.315 83.807 129.315C94.2834 129.315 94.2834 135.873 104.756 135.873C115.228 135.873 115.232 129.315 125.708 129.315C136.185 129.315 136.185 135.873 146.661 135.873C157.138 135.873 157.138 129.315 167.614 129.315C178.09 129.315 178.086 135.873 188.563 135.873C199.039 135.873 199.039 129.315 209.515 129.315C219.992 129.315 219.992 135.873 230.464 135.873C240.936 135.873 240.94 129.315 251.417 129.315C261.893 129.315 261.893 135.873 272.374 135.873C282.854 135.873 282.846 129.315 293.322 129.315C303.799 129.315 303.803 135.873 314.279 135.873C324.756 135.873 324.756 129.315 335.228 129.315C345.7 129.315 345.704 135.873 356.181 135.873C366.657 135.873 366.657 129.315 377.138 129.315C387.618 129.315 387.614 135.873 398.09 135.873C408.567 135.873 408.567 129.315 419.043 129.315C429.52 129.315 429.524 135.873 440 135.873" stroke="white" stroke-miterlimit="10"/>
<path opacity="0.25" d="M0 126.446C10.4764 126.446 10.4764 133.004 20.9528 133.004C31.4292 133.004 31.4292 126.446 41.9014 126.446C52.3737 126.446 52.3778 133.004 62.8542 133.004C73.3306 133.004 73.3306 126.446 83.807 126.446C94.2834 126.446 94.2834 133.004 104.756 133.004C115.228 133.004 115.232 126.446 125.708 126.446C136.185 126.446 136.185 133.004 146.661 133.004C157.138 133.004 157.138 126.446 167.614 126.446C178.09 126.446 178.086 133.004 188.563 133.004C199.039 133.004 199.039 126.446 209.515 126.446C219.992 126.446 219.992 133.004 230.464 133.004C240.936 133.004 240.94 126.446 251.417 126.446C261.893 126.446 261.893 133.004 272.374 133.004C282.854 133.004 282.846 126.446 293.322 126.446C303.799 126.446 303.803 133.004 314.279 133.004C324.756 133.004 324.756 126.446 335.228 126.446C345.7 126.446 345.704 133.004 356.181 133.004C366.657 133.004 366.657 126.446 377.138 126.446C387.618 126.446 387.614 133.004 398.09 133.004C408.567 133.004 408.567 126.446 419.043 126.446C429.52 126.446 429.524 133.004 440 133.004" stroke="white" stroke-miterlimit="10"/>
<path opacity="0.25" d="M0 123.577C10.4764 123.577 10.4764 130.135 20.9528 130.135C31.4292 130.135 31.4292 123.577 41.9014 123.577C52.3737 123.577 52.3778 130.135 62.8542 130.135C73.3306 130.135 73.3306 123.577 83.807 123.577C94.2834 123.577 94.2834 130.135 104.756 130.135C115.228 130.135 115.232 123.577 125.708 123.577C136.185 123.577 136.185 130.135 146.661 130.135C157.138 130.135 157.138 123.577 167.614 123.577C178.09 123.577 178.086 130.135 188.563 130.135C199.039 130.135 199.039 123.577 209.515 123.577C219.992 123.577 219.992 130.135 230.464 130.135C240.936 130.135 240.94 123.577 251.417 123.577C261.893 123.577 261.893 130.135 272.374 130.135C282.854 130.135 282.846 123.577 293.322 123.577C303.799 123.577 303.803 130.135 314.279 130.135C324.756 130.135 324.756 123.577 335.228 123.577C345.7 123.577 345.704 130.135 356.181 130.135C366.657 130.135 366.657 123.577 377.138 123.577C387.618 123.577 387.614 130.135 398.09 130.135C408.567 130.135 408.567 123.577 419.043 123.577C429.52 123.577 429.524 130.135 440 130.135" stroke="white" stroke-miterlimit="10"/>
<path opacity="0.25" d="M0 120.708C10.4764 120.708 10.4764 127.266 20.9528 127.266C31.4292 127.266 31.4292 120.708 41.9014 120.708C52.3737 120.708 52.3778 127.266 62.8542 127.266C73.3306 127.266 73.3306 120.708 83.807 120.708C94.2834 120.708 94.2834 127.266 104.756 127.266C115.228 127.266 115.232 120.708 125.708 120.708C136.185 120.708 136.185 127.266 146.661 127.266C157.138 127.266 157.138 120.708 167.614 120.708C178.09 120.708 178.086 127.266 188.563 127.266C199.039 127.266 199.039 120.708 209.515 120.708C219.992 120.708 219.992 127.266 230.464 127.266C240.936 127.266 240.94 120.708 251.417 120.708C261.893 120.708 261.893 127.266 272.374 127.266C282.854 127.266 282.846 120.708 293.322 120.708C303.799 120.708 303.803 127.266 314.279 127.266C324.756 127.266 324.756 120.708 335.228 120.708C345.7 120.708 345.704 127.266 356.181 127.266C366.657 127.266 366.657 120.708 377.138 120.708C387.618 120.708 387.614 127.266 398.09 127.266C408.567 127.266 408.567 120.708 419.043 120.708C429.52 120.708 429.524 127.266 440 127.266" stroke="white" stroke-miterlimit="10"/>
<path opacity="0.25" d="M0 117.839C10.4764 117.839 10.4764 124.397 20.9528 124.397C31.4292 124.397 31.4292 117.839 41.9014 117.839C52.3737 117.839 52.3778 124.397 62.8542 124.397C73.3306 124.397 73.3306 117.839 83.807 117.839C94.2834 117.839 94.2834 124.397 104.756 124.397C115.228 124.397 115.232 117.839 125.708 117.839C136.185 117.839 136.185 124.397 146.661 124.397C157.138 124.397 157.138 117.839 167.614 117.839C178.09 117.839 178.086 124.397 188.563 124.397C199.039 124.397 199.039 117.839 209.515 117.839C219.992 117.839 219.992 124.397 230.464 124.397C240.936 124.397 240.94 117.839 251.417 117.839C261.893 117.839 261.893 124.397 272.374 124.397C282.854 124.397 282.846 117.839 293.322 117.839C303.799 117.839 303.803 124.397 314.279 124.397C324.756 124.397 324.756 117.839 335.228 117.839C345.7 117.839 345.704 124.397 356.181 124.397C366.657 124.397 366.657 117.839 377.138 117.839C387.618 117.839 387.614 124.397 398.09 124.397C408.567 124.397 408.567 117.839 419.043 117.839C429.52 117.839 429.524 124.397 440 124.397" stroke="white" stroke-miterlimit="10"/>
<path opacity="0.25" d="M0 114.97C10.4764 114.97 10.4764 121.528 20.9528 121.528C31.4292 121.528 31.4292 114.97 41.9014 114.97C52.3737 114.97 52.3778 121.528 62.8542 121.528C73.3306 121.528 73.3306 114.97 83.807 114.97C94.2834 114.97 94.2834 121.528 104.756 121.528C115.228 121.528 115.232 114.97 125.708 114.97C136.185 114.97 136.185 121.528 146.661 121.528C157.138 121.528 157.138 114.97 167.614 114.97C178.09 114.97 178.086 121.528 188.563 121.528C199.039 121.528 199.039 114.97 209.515 114.97C219.992 114.97 219.992 121.528 230.464 121.528C240.936 121.528 240.94 114.97 251.417 114.97C261.893 114.97 261.893 121.528 272.374 121.528C282.854 121.528 282.846 114.97 293.322 114.97C303.799 114.97 303.803 121.528 314.279 121.528C324.756 121.528 324.756 114.97 335.228 114.97C345.7 114.97 345.704 121.528 356.181 121.528C366.657 121.528 366.657 114.97 377.138 114.97C387.618 114.97 387.614 121.528 398.09 121.528C408.567 121.528 408.567 114.97 419.043 114.97C429.52 114.97 429.524 121.528 440 121.528" stroke="white" stroke-miterlimit="10"/>
<path opacity="0.25" d="M0 112.101C10.4764 112.101 10.4764 118.659 20.9528 118.659C31.4292 118.659 31.4292 112.101 41.9014 112.101C52.3737 112.101 52.3778 118.659 62.8542 118.659C73.3306 118.659 73.3306 112.101 83.807 112.101C94.2834 112.101 94.2834 118.659 104.756 118.659C115.228 118.659 115.232 112.101 125.708 112.101C136.185 112.101 136.185 118.659 146.661 118.659C157.138 118.659 157.138 112.101 167.614 112.101C178.09 112.101 178.086 118.659 188.563 118.659C199.039 118.659 199.039 112.101 209.515 112.101C219.992 112.101 219.992 118.659 230.464 118.659C240.936 118.659 240.94 112.101 251.417 112.101C261.893 112.101 261.893 118.659 272.374 118.659C282.854 118.659 282.846 112.101 293.322 112.101C303.799 112.101 303.803 118.659 314.279 118.659C324.756 118.659 324.756 112.101 335.228 112.101C345.7 112.101 345.704 118.659 356.181 118.659C366.657 118.659 366.657 112.101 377.138 112.101C387.618 112.101 387.614 118.659 398.09 118.659C408.567 118.659 408.567 112.101 419.043 112.101C429.52 112.101 429.524 118.659 440 118.659" stroke="white" stroke-miterlimit="10"/>
<path opacity="0.25" d="M0 109.231C10.4764 109.231 10.4764 115.789 20.9528 115.789C31.4292 115.789 31.4292 109.231 41.9014 109.231C52.3737 109.231 52.3778 115.789 62.8542 115.789C73.3306 115.789 73.3306 109.231 83.807 109.231C94.2834 109.231 94.2834 115.789 104.756 115.789C115.228 115.789 115.232 109.231 125.708 109.231C136.185 109.231 136.185 115.789 146.661 115.789C157.138 115.789 157.138 109.231 167.614 109.231C178.09 109.231 178.086 115.789 188.563 115.789C199.039 115.789 199.039 109.231 209.515 109.231C219.992 109.231 219.992 115.789 230.464 115.789C240.936 115.789 240.94 109.231 251.417 109.231C261.893 109.231 261.893 115.789 272.374 115.789C282.854 115.789 282.846 109.231 293.322 109.231C303.799 109.231 303.803 115.789 314.279 115.789C324.756 115.789 324.756 109.231 335.228 109.231C345.7 109.231 345.704 115.789 356.181 115.789C366.657 115.789 366.657 109.231 377.138 109.231C387.618 109.231 387.614 115.789 398.09 115.789C408.567 115.789 408.567 109.231 419.043 109.231C429.52 109.231 429.524 115.789 440 115.789" stroke="white" stroke-miterlimit="10"/>
<path opacity="0.25" d="M0 106.362C10.4764 106.362 10.4764 112.92 20.9528 112.92C31.4292 112.92 31.4292 106.362 41.9014 106.362C52.3737 106.362 52.3778 112.92 62.8542 112.92C73.3306 112.92 73.3306 106.362 83.807 106.362C94.2834 106.362 94.2834 112.92 104.756 112.92C115.228 112.92 115.232 106.362 125.708 106.362C136.185 106.362 136.185 112.92 146.661 112.92C157.138 112.92 157.138 106.362 167.614 106.362C178.09 106.362 178.086 112.92 188.563 112.92C199.039 112.92 199.039 106.362 209.515 106.362C219.992 106.362 219.992 112.92 230.464 112.92C240.936 112.92 240.94 106.362 251.417 106.362C261.893 106.362 261.893 112.92 272.374 112.92C282.854 112.92 282.846 106.362 293.322 106.362C303.799 106.362 303.803 112.92 314.279 112.92C324.756 112.92 324.756 106.362 335.228 106.362C345.7 106.362 345.704 112.92 356.181 112.92C366.657 112.92 366.657 106.362 377.138 106.362C387.618 106.362 387.614 112.92 398.09 112.92C408.567 112.92 408.567 106.362 419.043 106.362C429.52 106.362 429.524 112.92 440 112.92" stroke="white" stroke-miterlimit="10"/>
<path opacity="0.25" d="M0 103.493C10.4764 103.493 10.4764 110.051 20.9528 110.051C31.4292 110.051 31.4292 103.493 41.9014 103.493C52.3737 103.493 52.3778 110.051 62.8542 110.051C73.3306 110.051 73.3306 103.493 83.807 103.493C94.2834 103.493 94.2834 110.051 104.756 110.051C115.228 110.051 115.232 103.493 125.708 103.493C136.185 103.493 136.185 110.051 146.661 110.051C157.138 110.051 157.138 103.493 167.614 103.493C178.09 103.493 178.086 110.051 188.563 110.051C199.039 110.051 199.039 103.493 209.515 103.493C219.992 103.493 219.992 110.051 230.464 110.051C240.936 110.051 240.94 103.493 251.417 103.493C261.893 103.493 261.893 110.051 272.374 110.051C282.854 110.051 282.846 103.493 293.322 103.493C303.799 103.493 303.803 110.051 314.279 110.051C324.756 110.051 324.756 103.493 335.228 103.493C345.7 103.493 345.704 110.051 356.181 110.051C366.657 110.051 366.657 103.493 377.138 103.493C387.618 103.493 387.614 110.051 398.09 110.051C408.567 110.051 408.567 103.493 419.043 103.493C429.52 103.493 429.524 110.051 440 110.051" stroke="white" stroke-miterlimit="10"/>
<path opacity="0.25" d="M0 100.624C10.4764 100.624 10.4764 107.182 20.9528 107.182C31.4292 107.182 31.4292 100.624 41.9014 100.624C52.3737 100.624 52.3778 107.182 62.8542 107.182C73.3306 107.182 73.3306 100.624 83.807 100.624C94.2834 100.624 94.2834 107.182 104.756 107.182C115.228 107.182 115.232 100.624 125.708 100.624C136.185 100.624 136.185 107.182 146.661 107.182C157.138 107.182 157.138 100.624 167.614 100.624C178.09 100.624 178.086 107.182 188.563 107.182C199.039 107.182 199.039 100.624 209.515 100.624C219.992 100.624 219.992 107.182 230.464 107.182C240.936 107.182 240.94 100.624 251.417 100.624C261.893 100.624 261.893 107.182 272.374 107.182C282.854 107.182 282.846 100.624 293.322 100.624C303.799 100.624 303.803 107.182 314.279 107.182C324.756 107.182 324.756 100.624 335.228 100.624C345.7 100.624 345.704 107.182 356.181 107.182C366.657 107.182 366.657 100.624 377.138 100.624C387.618 100.624 387.614 107.182 398.09 107.182C408.567 107.182 408.567 100.624 419.043 100.624C429.52 100.624 429.524 107.182 440 107.182" stroke="white" stroke-miterlimit="10"/>
<path opacity="0.25" d="M0 97.7554C10.4764 97.7554 10.4764 104.313 20.9528 104.313C31.4292 104.313 31.4292 97.7554 41.9014 97.7554C52.3737 97.7554 52.3778 104.313 62.8542 104.313C73.3306 104.313 73.3306 97.7554 83.807 97.7554C94.2834 97.7554 94.2834 104.313 104.756 104.313C115.228 104.313 115.232 97.7554 125.708 97.7554C136.185 97.7554 136.185 104.313 146.661 104.313C157.138 104.313 157.138 97.7554 167.614 97.7554C178.09 97.7554 178.086 104.313 188.563 104.313C199.039 104.313 199.039 97.7554 209.515 97.7554C219.992 97.7554 219.992 104.313 230.464 104.313C240.936 104.313 240.94 97.7554 251.417 97.7554C261.893 97.7554 261.893 104.313 272.374 104.313C282.854 104.313 282.846 97.7554 293.322 97.7554C303.799 97.7554 303.803 104.313 314.279 104.313C324.756 104.313 324.756 97.7554 335.228 97.7554C345.7 97.7554 345.704 104.313 356.181 104.313C366.657 104.313 366.657 97.7554 377.138 97.7554C387.618 97.7554 387.614 104.313 398.09 104.313C408.567 104.313 408.567 97.7554 419.043 97.7554C429.52 97.7554 429.524 104.313 440 104.313" stroke="white" stroke-miterlimit="10"/>
<path opacity="0.25" d="M0 94.8862C10.4764 94.8862 10.4764 101.444 20.9528 101.444C31.4292 101.444 31.4292 94.8862 41.9014 94.8862C52.3737 94.8862 52.3778 101.444 62.8542 101.444C73.3306 101.444 73.3306 94.8862 83.807 94.8862C94.2834 94.8862 94.2834 101.444 104.756 101.444C115.228 101.444 115.232 94.8862 125.708 94.8862C136.185 94.8862 136.185 101.444 146.661 101.444C157.138 101.444 157.138 94.8862 167.614 94.8862C178.09 94.8862 178.086 101.444 188.563 101.444C199.039 101.444 199.039 94.8862 209.515 94.8862C219.992 94.8862 219.992 101.444 230.464 101.444C240.936 101.444 240.94 94.8862 251.417 94.8862C261.893 94.8862 261.893 101.444 272.374 101.444C282.854 101.444 282.846 94.8862 293.322 94.8862C303.799 94.8862 303.803 101.444 314.279 101.444C324.756 101.444 324.756 94.8862 335.228 94.8862C345.7 94.8862 345.704 101.444 356.181 101.444C366.657 101.444 366.657 94.8862 377.138 94.8862C387.618 94.8862 387.614 101.444 398.09 101.444C408.567 101.444 408.567 94.8862 419.043 94.8862C429.52 94.8862 429.524 101.444 440 101.444" stroke="white" stroke-miterlimit="10"/>
<path opacity="0.25" d="M0 92.0171C10.4764 92.0171 10.4764 98.5751 20.9528 98.5751C31.4292 98.5751 31.4292 92.0171 41.9014 92.0171C52.3737 92.0171 52.3778 98.5751 62.8542 98.5751C73.3306 98.5751 73.3306 92.0171 83.807 92.0171C94.2834 92.0171 94.2834 98.5751 104.756 98.5751C115.228 98.5751 115.232 92.0171 125.708 92.0171C136.185 92.0171 136.185 98.5751 146.661 98.5751C157.138 98.5751 157.138 92.0171 167.614 92.0171C178.09 92.0171 178.086 98.5751 188.563 98.5751C199.039 98.5751 199.039 92.0171 209.515 92.0171C219.992 92.0171 219.992 98.5751 230.464 98.5751C240.936 98.5751 240.94 92.0171 251.417 92.0171C261.893 92.0171 261.893 98.5751 272.374 98.5751C282.854 98.5751 282.846 92.0171 293.322 92.0171C303.799 92.0171 303.803 98.5751 314.279 98.5751C324.756 98.5751 324.756 92.0171 335.228 92.0171C345.7 92.0171 345.704 98.5751 356.181 98.5751C366.657 98.5751 366.657 92.0171 377.138 92.0171C387.618 92.0171 387.614 98.5751 398.09 98.5751C408.567 98.5751 408.567 92.0171 419.043 92.0171C429.52 92.0171 429.524 98.5751 440 98.5751" stroke="white" stroke-miterlimit="10"/>
<path opacity="0.25" d="M0 89.1479C10.4764 89.1479 10.4764 95.7059 20.9528 95.7059C31.4292 95.7059 31.4292 89.1479 41.9014 89.1479C52.3737 89.1479 52.3778 95.7059 62.8542 95.7059C73.3306 95.7059 73.3306 89.1479 83.807 89.1479C94.2834 89.1479 94.2834 95.7059 104.756 95.7059C115.228 95.7059 115.232 89.1479 125.708 89.1479C136.185 89.1479 136.185 95.7059 146.661 95.7059C157.138 95.7059 157.138 89.1479 167.614 89.1479C178.09 89.1479 178.086 95.7059 188.563 95.7059C199.039 95.7059 199.039 89.1479 209.515 89.1479C219.992 89.1479 219.992 95.7059 230.464 95.7059C240.936 95.7059 240.94 89.1479 251.417 89.1479C261.893 89.1479 261.893 95.7059 272.374 95.7059C282.854 95.7059 282.846 89.1479 293.322 89.1479C303.799 89.1479 303.803 95.7059 314.279 95.7059C324.756 95.7059 324.756 89.1479 335.228 89.1479C345.7 89.1479 345.704 95.7059 356.181 95.7059C366.657 95.7059 366.657 89.1479 377.138 89.1479C387.618 89.1479 387.614 95.7059 398.09 95.7059C408.567 95.7059 408.567 89.1479 419.043 89.1479C429.52 89.1479 429.524 95.7059 440 95.7059" stroke="white" stroke-miterlimit="10"/>
<path opacity="0.25" d="M0 86.2788C10.4764 86.2788 10.4764 92.8368 20.9528 92.8368C31.4292 92.8368 31.4292 86.2788 41.9014 86.2788C52.3737 86.2788 52.3778 92.8368 62.8542 92.8368C73.3306 92.8368 73.3306 86.2788 83.807 86.2788C94.2834 86.2788 94.2834 92.8368 104.756 92.8368C115.228 92.8368 115.232 86.2788 125.708 86.2788C136.185 86.2788 136.185 92.8368 146.661 92.8368C157.138 92.8368 157.138 86.2788 167.614 86.2788C178.09 86.2788 178.086 92.8368 188.563 92.8368C199.039 92.8368 199.039 86.2788 209.515 86.2788C219.992 86.2788 219.992 92.8368 230.464 92.8368C240.936 92.8368 240.94 86.2788 251.417 86.2788C261.893 86.2788 261.893 92.8368 272.374 92.8368C282.854 92.8368 282.846 86.2788 293.322 86.2788C303.799 86.2788 303.803 92.8368 314.279 92.8368C324.756 92.8368 324.756 86.2788 335.228 86.2788C345.7 86.2788 345.704 92.8368 356.181 92.8368C366.657 92.8368 366.657 86.2788 377.138 86.2788C387.618 86.2788 387.614 92.8368 398.09 92.8368C408.567 92.8368 408.567 86.2788 419.043 86.2788C429.52 86.2788 429.524 92.8368 440 92.8368" stroke="white" stroke-miterlimit="10"/>
<path opacity="0.25" d="M0 83.4097C10.4764 83.4097 10.4764 89.9677 20.9528 89.9677C31.4292 89.9677 31.4292 83.4097 41.9014 83.4097C52.3737 83.4097 52.3778 89.9677 62.8542 89.9677C73.3306 89.9677 73.3306 83.4097 83.807 83.4097C94.2834 83.4097 94.2834 89.9677 104.756 89.9677C115.228 89.9677 115.232 83.4097 125.708 83.4097C136.185 83.4097 136.185 89.9677 146.661 89.9677C157.138 89.9677 157.138 83.4097 167.614 83.4097C178.09 83.4097 178.086 89.9677 188.563 89.9677C199.039 89.9677 199.039 83.4097 209.515 83.4097C219.992 83.4097 219.992 89.9677 230.464 89.9677C240.936 89.9677 240.94 83.4097 251.417 83.4097C261.893 83.4097 261.893 89.9677 272.374 89.9677C282.854 89.9677 282.846 83.4097 293.322 83.4097C303.799 83.4097 303.803 89.9677 314.279 89.9677C324.756 89.9677 324.756 83.4097 335.228 83.4097C345.7 83.4097 345.704 89.9677 356.181 89.9677C366.657 89.9677 366.657 83.4097 377.138 83.4097C387.618 83.4097 387.614 89.9677 398.09 89.9677C408.567 89.9677 408.567 83.4097 419.043 83.4097C429.52 83.4097 429.524 89.9677 440 89.9677" stroke="white" stroke-miterlimit="10"/>
<path opacity="0.25" d="M0 80.5405C10.4764 80.5405 10.4764 87.0985 20.9528 87.0985C31.4292 87.0985 31.4292 80.5405 41.9014 80.5405C52.3737 80.5405 52.3778 87.0985 62.8542 87.0985C73.3306 87.0985 73.3306 80.5405 83.807 80.5405C94.2834 80.5405 94.2834 87.0985 104.756 87.0985C115.228 87.0985 115.232 80.5405 125.708 80.5405C136.185 80.5405 136.185 87.0985 146.661 87.0985C157.138 87.0985 157.138 80.5405 167.614 80.5405C178.09 80.5405 178.086 87.0985 188.563 87.0985C199.039 87.0985 199.039 80.5405 209.515 80.5405C219.992 80.5405 219.992 87.0985 230.464 87.0985C240.936 87.0985 240.94 80.5405 251.417 80.5405C261.893 80.5405 261.893 87.0985 272.374 87.0985C282.854 87.0985 282.846 80.5405 293.322 80.5405C303.799 80.5405 303.803 87.0985 314.279 87.0985C324.756 87.0985 324.756 80.5405 335.228 80.5405C345.7 80.5405 345.704 87.0985 356.181 87.0985C366.657 87.0985 366.657 80.5405 377.138 80.5405C387.618 80.5405 387.614 87.0985 398.09 87.0985C408.567 87.0985 408.567 80.5405 419.043 80.5405C429.52 80.5405 429.524 87.0985 440 87.0985" stroke="white" stroke-miterlimit="10"/>
<path opacity="0.25" d="M0 77.6714C10.4764 77.6714 10.4764 84.2294 20.9528 84.2294C31.4292 84.2294 31.4292 77.6714 41.9014 77.6714C52.3737 77.6714 52.3778 84.2294 62.8542 84.2294C73.3306 84.2294 73.3306 77.6714 83.807 77.6714C94.2834 77.6714 94.2834 84.2294 104.756 84.2294C115.228 84.2294 115.232 77.6714 125.708 77.6714C136.185 77.6714 136.185 84.2294 146.661 84.2294C157.138 84.2294 157.138 77.6714 167.614 77.6714C178.09 77.6714 178.086 84.2294 188.563 84.2294C199.039 84.2294 199.039 77.6714 209.515 77.6714C219.992 77.6714 219.992 84.2294 230.464 84.2294C240.936 84.2294 240.94 77.6714 251.417 77.6714C261.893 77.6714 261.893 84.2294 272.374 84.2294C282.854 84.2294 282.846 77.6714 293.322 77.6714C303.799 77.6714 303.803 84.2294 314.279 84.2294C324.756 84.2294 324.756 77.6714 335.228 77.6714C345.7 77.6714 345.704 84.2294 356.181 84.2294C366.657 84.2294 366.657 77.6714 377.138 77.6714C387.618 77.6714 387.614 84.2294 398.09 84.2294C408.567 84.2294 408.567 77.6714 419.043 77.6714C429.52 77.6714 429.524 84.2294 440 84.2294" stroke="white" stroke-miterlimit="10"/>
<path opacity="0.25" d="M0 74.8022C10.4764 74.8022 10.4764 81.3602 20.9528 81.3602C31.4292 81.3602 31.4292 74.8022 41.9014 74.8022C52.3737 74.8022 52.3778 81.3602 62.8542 81.3602C73.3306 81.3602 73.3306 74.8022 83.807 74.8022C94.2834 74.8022 94.2834 81.3602 104.756 81.3602C115.228 81.3602 115.232 74.8022 125.708 74.8022C136.185 74.8022 136.185 81.3602 146.661 81.3602C157.138 81.3602 157.138 74.8022 167.614 74.8022C178.09 74.8022 178.086 81.3602 188.563 81.3602C199.039 81.3602 199.039 74.8022 209.515 74.8022C219.992 74.8022 219.992 81.3602 230.464 81.3602C240.936 81.3602 240.94 74.8022 251.417 74.8022C261.893 74.8022 261.893 81.3602 272.374 81.3602C282.854 81.3602 282.846 74.8022 293.322 74.8022C303.799 74.8022 303.803 81.3602 314.279 81.3602C324.756 81.3602 324.756 74.8022 335.228 74.8022C345.7 74.8022 345.704 81.3602 356.181 81.3602C366.657 81.3602 366.657 74.8022 377.138 74.8022C387.618 74.8022 387.614 81.3602 398.09 81.3602C408.567 81.3602 408.567 74.8022 419.043 74.8022C429.52 74.8022 429.524 81.3602 440 81.3602" stroke="white" stroke-miterlimit="10"/>
<path opacity="0.25" d="M0 71.9331C10.4764 71.9331 10.4764 78.4911 20.9528 78.4911C31.4292 78.4911 31.4292 71.9331 41.9014 71.9331C52.3737 71.9331 52.3778 78.4911 62.8542 78.4911C73.3306 78.4911 73.3306 71.9331 83.807 71.9331C94.2834 71.9331 94.2834 78.4911 104.756 78.4911C115.228 78.4911 115.232 71.9331 125.708 71.9331C136.185 71.9331 136.185 78.4911 146.661 78.4911C157.138 78.4911 157.138 71.9331 167.614 71.9331C178.09 71.9331 178.086 78.4911 188.563 78.4911C199.039 78.4911 199.039 71.9331 209.515 71.9331C219.992 71.9331 219.992 78.4911 230.464 78.4911C240.936 78.4911 240.94 71.9331 251.417 71.9331C261.893 71.9331 261.893 78.4911 272.374 78.4911C282.854 78.4911 282.846 71.9331 293.322 71.9331C303.799 71.9331 303.803 78.4911 314.279 78.4911C324.756 78.4911 324.756 71.9331 335.228 71.9331C345.7 71.9331 345.704 78.4911 356.181 78.4911C366.657 78.4911 366.657 71.9331 377.138 71.9331C387.618 71.9331 387.614 78.4911 398.09 78.4911C408.567 78.4911 408.567 71.9331 419.043 71.9331C429.52 71.9331 429.524 78.4911 440 78.4911" stroke="white" stroke-miterlimit="10"/>
<path opacity="0.25" d="M0 69.064C10.4764 69.064 10.4764 75.622 20.9528 75.622C31.4292 75.622 31.4292 69.064 41.9014 69.064C52.3737 69.064 52.3778 75.622 62.8542 75.622C73.3306 75.622 73.3306 69.064 83.807 69.064C94.2834 69.064 94.2834 75.622 104.756 75.622C115.228 75.622 115.232 69.064 125.708 69.064C136.185 69.064 136.185 75.622 146.661 75.622C157.138 75.622 157.138 69.064 167.614 69.064C178.09 69.064 178.086 75.622 188.563 75.622C199.039 75.622 199.039 69.064 209.515 69.064C219.992 69.064 219.992 75.622 230.464 75.622C240.936 75.622 240.94 69.064 251.417 69.064C261.893 69.064 261.893 75.622 272.374 75.622C282.854 75.622 282.846 69.064 293.322 69.064C303.799 69.064 303.803 75.622 314.279 75.622C324.756 75.622 324.756 69.064 335.228 69.064C345.7 69.064 345.704 75.622 356.181 75.622C366.657 75.622 366.657 69.064 377.138 69.064C387.618 69.064 387.614 75.622 398.09 75.622C408.567 75.622 408.567 69.064 419.043 69.064C429.52 69.064 429.524 75.622 440 75.622" stroke="white" stroke-miterlimit="10"/>
<path opacity="0.25" d="M0 66.1948C10.4764 66.1948 10.4764 72.7528 20.9528 72.7528C31.4292 72.7528 31.4292 66.1948 41.9014 66.1948C52.3737 66.1948 52.3778 72.7528 62.8542 72.7528C73.3306 72.7528 73.3306 66.1948 83.807 66.1948C94.2834 66.1948 94.2834 72.7528 104.756 72.7528C115.228 72.7528 115.232 66.1948 125.708 66.1948C136.185 66.1948 136.185 72.7528 146.661 72.7528C157.138 72.7528 157.138 66.1948 167.614 66.1948C178.09 66.1948 178.086 72.7528 188.563 72.7528C199.039 72.7528 199.039 66.1948 209.515 66.1948C219.992 66.1948 219.992 72.7528 230.464 72.7528C240.936 72.7528 240.94 66.1948 251.417 66.1948C261.893 66.1948 261.893 72.7528 272.374 72.7528C282.854 72.7528 282.846 66.1948 293.322 66.1948C303.799 66.1948 303.803 72.7528 314.279 72.7528C324.756 72.7528 324.756 66.1948 335.228 66.1948C345.7 66.1948 345.704 72.7528 356.181 72.7528C366.657 72.7528 366.657 66.1948 377.138 66.1948C387.618 66.1948 387.614 72.7528 398.09 72.7528C408.567 72.7528 408.567 66.1948 419.043 66.1948C429.52 66.1948 429.524 72.7528 440 72.7528" stroke="white" stroke-miterlimit="10"/>
<path opacity="0.25" d="M0 63.3257C10.4764 63.3257 10.4764 69.8837 20.9528 69.8837C31.4292 69.8837 31.4292 63.3257 41.9014 63.3257C52.3737 63.3257 52.3778 69.8837 62.8542 69.8837C73.3306 69.8837 73.3306 63.3257 83.807 63.3257C94.2834 63.3257 94.2834 69.8837 104.756 69.8837C115.228 69.8837 115.232 63.3257 125.708 63.3257C136.185 63.3257 136.185 69.8837 146.661 69.8837C157.138 69.8837 157.138 63.3257 167.614 63.3257C178.09 63.3257 178.086 69.8837 188.563 69.8837C199.039 69.8837 199.039 63.3257 209.515 63.3257C219.992 63.3257 219.992 69.8837 230.464 69.8837C240.936 69.8837 240.94 63.3257 251.417 63.3257C261.893 63.3257 261.893 69.8837 272.374 69.8837C282.854 69.8837 282.846 63.3257 293.322 63.3257C303.799 63.3257 303.803 69.8837 314.279 69.8837C324.756 69.8837 324.756 63.3257 335.228 63.3257C345.7 63.3257 345.704 69.8837 356.181 69.8837C366.657 69.8837 366.657 63.3257 377.138 63.3257C387.618 63.3257 387.614 69.8837 398.09 69.8837C408.567 69.8837 408.567 63.3257 419.043 63.3257C429.52 63.3257 429.524 69.8837 440 69.8837" stroke="white" stroke-miterlimit="10"/>
<path opacity="0.25" d="M0 60.4565C10.4764 60.4565 10.4764 67.0145 20.9528 67.0145C31.4292 67.0145 31.4292 60.4565 41.9014 60.4565C52.3737 60.4565 52.3778 67.0145 62.8542 67.0145C73.3306 67.0145 73.3306 60.4565 83.807 60.4565C94.2834 60.4565 94.2834 67.0145 104.756 67.0145C115.228 67.0145 115.232 60.4565 125.708 60.4565C136.185 60.4565 136.185 67.0145 146.661 67.0145C157.138 67.0145 157.138 60.4565 167.614 60.4565C178.09 60.4565 178.086 67.0145 188.563 67.0145C199.039 67.0145 199.039 60.4565 209.515 60.4565C219.992 60.4565 219.992 67.0145 230.464 67.0145C240.936 67.0145 240.94 60.4565 251.417 60.4565C261.893 60.4565 261.893 67.0145 272.374 67.0145C282.854 67.0145 282.846 60.4565 293.322 60.4565C303.799 60.4565 303.803 67.0145 314.279 67.0145C324.756 67.0145 324.756 60.4565 335.228 60.4565C345.7 60.4565 345.704 67.0145 356.181 67.0145C366.657 67.0145 366.657 60.4565 377.138 60.4565C387.618 60.4565 387.614 67.0145 398.09 67.0145C408.567 67.0145 408.567 60.4565 419.043 60.4565C429.52 60.4565 429.524 67.0145 440 67.0145" stroke="white" stroke-miterlimit="10"/>
<path opacity="0.25" d="M0 57.5874C10.4764 57.5874 10.4764 64.1454 20.9528 64.1454C31.4292 64.1454 31.4292 57.5874 41.9014 57.5874C52.3737 57.5874 52.3778 64.1454 62.8542 64.1454C73.3306 64.1454 73.3306 57.5874 83.807 57.5874C94.2834 57.5874 94.2834 64.1454 104.756 64.1454C115.228 64.1454 115.232 57.5874 125.708 57.5874C136.185 57.5874 136.185 64.1454 146.661 64.1454C157.138 64.1454 157.138 57.5874 167.614 57.5874C178.09 57.5874 178.086 64.1454 188.563 64.1454C199.039 64.1454 199.039 57.5874 209.515 57.5874C219.992 57.5874 219.992 64.1454 230.464 64.1454C240.936 64.1454 240.94 57.5874 251.417 57.5874C261.893 57.5874 261.893 64.1454 272.374 64.1454C282.854 64.1454 282.846 57.5874 293.322 57.5874C303.799 57.5874 303.803 64.1454 314.279 64.1454C324.756 64.1454 324.756 57.5874 335.228 57.5874C345.7 57.5874 345.704 64.1454 356.181 64.1454C366.657 64.1454 366.657 57.5874 377.138 57.5874C387.618 57.5874 387.614 64.1454 398.09 64.1454C408.567 64.1454 408.567 57.5874 419.043 57.5874C429.52 57.5874 429.524 64.1454 440 64.1454" stroke="white" stroke-miterlimit="10"/>
<path opacity="0.25" d="M0 54.7183C10.4764 54.7183 10.4764 61.2762 20.9528 61.2762C31.4292 61.2762 31.4292 54.7183 41.9014 54.7183C52.3737 54.7183 52.3778 61.2762 62.8542 61.2762C73.3306 61.2762 73.3306 54.7183 83.807 54.7183C94.2834 54.7183 94.2834 61.2762 104.756 61.2762C115.228 61.2762 115.232 54.7183 125.708 54.7183C136.185 54.7183 136.185 61.2762 146.661 61.2762C157.138 61.2762 157.138 54.7183 167.614 54.7183C178.09 54.7183 178.086 61.2762 188.563 61.2762C199.039 61.2762 199.039 54.7183 209.515 54.7183C219.992 54.7183 219.992 61.2762 230.464 61.2762C240.936 61.2762 240.94 54.7183 251.417 54.7183C261.893 54.7183 261.893 61.2762 272.374 61.2762C282.854 61.2762 282.846 54.7183 293.322 54.7183C303.799 54.7183 303.803 61.2762 314.279 61.2762C324.756 61.2762 324.756 54.7183 335.228 54.7183C345.7 54.7183 345.704 61.2762 356.181 61.2762C366.657 61.2762 366.657 54.7183 377.138 54.7183C387.618 54.7183 387.614 61.2762 398.09 61.2762C408.567 61.2762 408.567 54.7183 419.043 54.7183C429.52 54.7183 429.524 61.2762 440 61.2762" stroke="white" stroke-miterlimit="10"/>
<path opacity="0.25" d="M0 51.8491C10.4764 51.8491 10.4764 58.4071 20.9528 58.4071C31.4292 58.4071 31.4292 51.8491 41.9014 51.8491C52.3737 51.8491 52.3778 58.4071 62.8542 58.4071C73.3306 58.4071 73.3306 51.8491 83.807 51.8491C94.2834 51.8491 94.2834 58.4071 104.756 58.4071C115.228 58.4071 115.232 51.8491 125.708 51.8491C136.185 51.8491 136.185 58.4071 146.661 58.4071C157.138 58.4071 157.138 51.8491 167.614 51.8491C178.09 51.8491 178.086 58.4071 188.563 58.4071C199.039 58.4071 199.039 51.8491 209.515 51.8491C219.992 51.8491 219.992 58.4071 230.464 58.4071C240.936 58.4071 240.94 51.8491 251.417 51.8491C261.893 51.8491 261.893 58.4071 272.374 58.4071C282.854 58.4071 282.846 51.8491 293.322 51.8491C303.799 51.8491 303.803 58.4071 314.279 58.4071C324.756 58.4071 324.756 51.8491 335.228 51.8491C345.7 51.8491 345.704 58.4071 356.181 58.4071C366.657 58.4071 366.657 51.8491 377.138 51.8491C387.618 51.8491 387.614 58.4071 398.09 58.4071C408.567 58.4071 408.567 51.8491 419.043 51.8491C429.52 51.8491 429.524 58.4071 440 58.4071" stroke="white" stroke-miterlimit="10"/>
<path opacity="0.25" d="M0 48.98C10.4764 48.98 10.4764 55.538 20.9528 55.538C31.4292 55.538 31.4292 48.98 41.9014 48.98C52.3737 48.98 52.3778 55.538 62.8542 55.538C73.3306 55.538 73.3306 48.98 83.807 48.98C94.2834 48.98 94.2834 55.538 104.756 55.538C115.228 55.538 115.232 48.98 125.708 48.98C136.185 48.98 136.185 55.538 146.661 55.538C157.138 55.538 157.138 48.98 167.614 48.98C178.09 48.98 178.086 55.538 188.563 55.538C199.039 55.538 199.039 48.98 209.515 48.98C219.992 48.98 219.992 55.538 230.464 55.538C240.936 55.538 240.94 48.98 251.417 48.98C261.893 48.98 261.893 55.538 272.374 55.538C282.854 55.538 282.846 48.98 293.322 48.98C303.799 48.98 303.803 55.538 314.279 55.538C324.756 55.538 324.756 48.98 335.228 48.98C345.7 48.98 345.704 55.538 356.181 55.538C366.657 55.538 366.657 48.98 377.138 48.98C387.618 48.98 387.614 55.538 398.09 55.538C408.567 55.538 408.567 48.98 419.043 48.98C429.52 48.98 429.524 55.538 440 55.538" stroke="white" stroke-miterlimit="10"/>
<path opacity="0.25" d="M0 46.1108C10.4764 46.1108 10.4764 52.6688 20.9528 52.6688C31.4292 52.6688 31.4292 46.1108 41.9014 46.1108C52.3737 46.1108 52.3778 52.6688 62.8542 52.6688C73.3306 52.6688 73.3306 46.1108 83.807 46.1108C94.2834 46.1108 94.2834 52.6688 104.756 52.6688C115.228 52.6688 115.232 46.1108 125.708 46.1108C136.185 46.1108 136.185 52.6688 146.661 52.6688C157.138 52.6688 157.138 46.1108 167.614 46.1108C178.09 46.1108 178.086 52.6688 188.563 52.6688C199.039 52.6688 199.039 46.1108 209.515 46.1108C219.992 46.1108 219.992 52.6688 230.464 52.6688C240.936 52.6688 240.94 46.1108 251.417 46.1108C261.893 46.1108 261.893 52.6688 272.374 52.6688C282.854 52.6688 282.846 46.1108 293.322 46.1108C303.799 46.1108 303.803 52.6688 314.279 52.6688C324.756 52.6688 324.756 46.1108 335.228 46.1108C345.7 46.1108 345.704 52.6688 356.181 52.6688C366.657 52.6688 366.657 46.1108 377.138 46.1108C387.618 46.1108 387.614 52.6688 398.09 52.6688C408.567 52.6688 408.567 46.1108 419.043 46.1108C429.52 46.1108 429.524 52.6688 440 52.6688" stroke="white" stroke-miterlimit="10"/>
<path opacity="0.25" d="M0 43.2417C10.4764 43.2417 10.4764 49.7997 20.9528 49.7997C31.4292 49.7997 31.4292 43.2417 41.9014 43.2417C52.3737 43.2417 52.3778 49.7997 62.8542 49.7997C73.3306 49.7997 73.3306 43.2417 83.807 43.2417C94.2834 43.2417 94.2834 49.7997 104.756 49.7997C115.228 49.7997 115.232 43.2417 125.708 43.2417C136.185 43.2417 136.185 49.7997 146.661 49.7997C157.138 49.7997 157.138 43.2417 167.614 43.2417C178.09 43.2417 178.086 49.7997 188.563 49.7997C199.039 49.7997 199.039 43.2417 209.515 43.2417C219.992 43.2417 219.992 49.7997 230.464 49.7997C240.936 49.7997 240.94 43.2417 251.417 43.2417C261.893 43.2417 261.893 49.7997 272.374 49.7997C282.854 49.7997 282.846 43.2417 293.322 43.2417C303.799 43.2417 303.803 49.7997 314.279 49.7997C324.756 49.7997 324.756 43.2417 335.228 43.2417C345.7 43.2417 345.704 49.7997 356.181 49.7997C366.657 49.7997 366.657 43.2417 377.138 43.2417C387.618 43.2417 387.614 49.7997 398.09 49.7997C408.567 49.7997 408.567 43.2417 419.043 43.2417C429.52 43.2417 429.524 49.7997 440 49.7997" stroke="white" stroke-miterlimit="10"/>
<path opacity="0.25" d="M0 40.3726C10.4764 40.3726 10.4764 46.9306 20.9528 46.9306C31.4292 46.9306 31.4292 40.3726 41.9014 40.3726C52.3737 40.3726 52.3778 46.9306 62.8542 46.9306C73.3306 46.9306 73.3306 40.3726 83.807 40.3726C94.2834 40.3726 94.2834 46.9306 104.756 46.9306C115.228 46.9306 115.232 40.3726 125.708 40.3726C136.185 40.3726 136.185 46.9306 146.661 46.9306C157.138 46.9306 157.138 40.3726 167.614 40.3726C178.09 40.3726 178.086 46.9306 188.563 46.9306C199.039 46.9306 199.039 40.3726 209.515 40.3726C219.992 40.3726 219.992 46.9306 230.464 46.9306C240.936 46.9306 240.94 40.3726 251.417 40.3726C261.893 40.3726 261.893 46.9306 272.374 46.9306C282.854 46.9306 282.846 40.3726 293.322 40.3726C303.799 40.3726 303.803 46.9306 314.279 46.9306C324.756 46.9306 324.756 40.3726 335.228 40.3726C345.7 40.3726 345.704 46.9306 356.181 46.9306C366.657 46.9306 366.657 40.3726 377.138 40.3726C387.618 40.3726 387.614 46.9306 398.09 46.9306C408.567 46.9306 408.567 40.3726 419.043 40.3726C429.52 40.3726 429.524 46.9306 440 46.9306" stroke="white" stroke-miterlimit="10"/>
<path opacity="0.25" d="M0 37.5034C10.4764 37.5034 10.4764 44.0614 20.9528 44.0614C31.4292 44.0614 31.4292 37.5034 41.9014 37.5034C52.3737 37.5034 52.3778 44.0614 62.8542 44.0614C73.3306 44.0614 73.3306 37.5034 83.807 37.5034C94.2834 37.5034 94.2834 44.0614 104.756 44.0614C115.228 44.0614 115.232 37.5034 125.708 37.5034C136.185 37.5034 136.185 44.0614 146.661 44.0614C157.138 44.0614 157.138 37.5034 167.614 37.5034C178.09 37.5034 178.086 44.0614 188.563 44.0614C199.039 44.0614 199.039 37.5034 209.515 37.5034C219.992 37.5034 219.992 44.0614 230.464 44.0614C240.936 44.0614 240.94 37.5034 251.417 37.5034C261.893 37.5034 261.893 44.0614 272.374 44.0614C282.854 44.0614 282.846 37.5034 293.322 37.5034C303.799 37.5034 303.803 44.0614 314.279 44.0614C324.756 44.0614 324.756 37.5034 335.228 37.5034C345.7 37.5034 345.704 44.0614 356.181 44.0614C366.657 44.0614 366.657 37.5034 377.138 37.5034C387.618 37.5034 387.614 44.0614 398.09 44.0614C408.567 44.0614 408.567 37.5034 419.043 37.5034C429.52 37.5034 429.524 44.0614 440 44.0614" stroke="white" stroke-miterlimit="10"/>
<path opacity="0.25" d="M0 34.6343C10.4764 34.6343 10.4764 41.1923 20.9528 41.1923C31.4292 41.1923 31.4292 34.6343 41.9014 34.6343C52.3737 34.6343 52.3778 41.1923 62.8542 41.1923C73.3306 41.1923 73.3306 34.6343 83.807 34.6343C94.2834 34.6343 94.2834 41.1923 104.756 41.1923C115.228 41.1923 115.232 34.6343 125.708 34.6343C136.185 34.6343 136.185 41.1923 146.661 41.1923C157.138 41.1923 157.138 34.6343 167.614 34.6343C178.09 34.6343 178.086 41.1923 188.563 41.1923C199.039 41.1923 199.039 34.6343 209.515 34.6343C219.992 34.6343 219.992 41.1923 230.464 41.1923C240.936 41.1923 240.94 34.6343 251.417 34.6343C261.893 34.6343 261.893 41.1923 272.374 41.1923C282.854 41.1923 282.846 34.6343 293.322 34.6343C303.799 34.6343 303.803 41.1923 314.279 41.1923C324.756 41.1923 324.756 34.6343 335.228 34.6343C345.7 34.6343 345.704 41.1923 356.181 41.1923C366.657 41.1923 366.657 34.6343 377.138 34.6343C387.618 34.6343 387.614 41.1923 398.09 41.1923C408.567 41.1923 408.567 34.6343 419.043 34.6343C429.52 34.6343 429.524 41.1923 440 41.1923" stroke="white" stroke-miterlimit="10"/>
<path opacity="0.25" d="M0 31.7656C10.4764 31.7656 10.4764 38.3236 20.9528 38.3236C31.4292 38.3236 31.4292 31.7656 41.9014 31.7656C52.3737 31.7656 52.3778 38.3236 62.8542 38.3236C73.3306 38.3236 73.3306 31.7656 83.807 31.7656C94.2834 31.7656 94.2834 38.3236 104.756 38.3236C115.228 38.3236 115.232 31.7656 125.708 31.7656C136.185 31.7656 136.185 38.3236 146.661 38.3236C157.138 38.3236 157.138 31.7656 167.614 31.7656C178.09 31.7656 178.086 38.3236 188.563 38.3236C199.039 38.3236 199.039 31.7656 209.515 31.7656C219.992 31.7656 219.992 38.3236 230.464 38.3236C240.936 38.3236 240.94 31.7656 251.417 31.7656C261.893 31.7656 261.893 38.3236 272.374 38.3236C282.854 38.3236 282.846 31.7656 293.322 31.7656C303.799 31.7656 303.803 38.3236 314.279 38.3236C324.756 38.3236 324.756 31.7656 335.228 31.7656C345.7 31.7656 345.704 38.3236 356.181 38.3236C366.657 38.3236 366.657 31.7656 377.138 31.7656C387.618 31.7656 387.614 38.3236 398.09 38.3236C408.567 38.3236 408.567 31.7656 419.043 31.7656C429.52 31.7656 429.524 38.3236 440 38.3236" stroke="white" stroke-miterlimit="10"/>
<path opacity="0.25" d="M0 28.8965C10.4764 28.8965 10.4764 35.4545 20.9528 35.4545C31.4292 35.4545 31.4292 28.8965 41.9014 28.8965C52.3737 28.8965 52.3778 35.4545 62.8542 35.4545C73.3306 35.4545 73.3306 28.8965 83.807 28.8965C94.2834 28.8965 94.2834 35.4545 104.756 35.4545C115.228 35.4545 115.232 28.8965 125.708 28.8965C136.185 28.8965 136.185 35.4545 146.661 35.4545C157.138 35.4545 157.138 28.8965 167.614 28.8965C178.09 28.8965 178.086 35.4545 188.563 35.4545C199.039 35.4545 199.039 28.8965 209.515 28.8965C219.992 28.8965 219.992 35.4545 230.464 35.4545C240.936 35.4545 240.94 28.8965 251.417 28.8965C261.893 28.8965 261.893 35.4545 272.374 35.4545C282.854 35.4545 282.846 28.8965 293.322 28.8965C303.799 28.8965 303.803 35.4545 314.279 35.4545C324.756 35.4545 324.756 28.8965 335.228 28.8965C345.7 28.8965 345.704 35.4545 356.181 35.4545C366.657 35.4545 366.657 28.8965 377.138 28.8965C387.618 28.8965 387.614 35.4545 398.09 35.4545C408.567 35.4545 408.567 28.8965 419.043 28.8965C429.52 28.8965 429.524 35.4545 440 35.4545" stroke="white" stroke-miterlimit="10"/>
<path opacity="0.25" d="M0 26.0273C10.4764 26.0273 10.4764 32.5853 20.9528 32.5853C31.4292 32.5853 31.4292 26.0273 41.9014 26.0273C52.3737 26.0273 52.3778 32.5853 62.8542 32.5853C73.3306 32.5853 73.3306 26.0273 83.807 26.0273C94.2834 26.0273 94.2834 32.5853 104.756 32.5853C115.228 32.5853 115.232 26.0273 125.708 26.0273C136.185 26.0273 136.185 32.5853 146.661 32.5853C157.138 32.5853 157.138 26.0273 167.614 26.0273C178.09 26.0273 178.086 32.5853 188.563 32.5853C199.039 32.5853 199.039 26.0273 209.515 26.0273C219.992 26.0273 219.992 32.5853 230.464 32.5853C240.936 32.5853 240.94 26.0273 251.417 26.0273C261.893 26.0273 261.893 32.5853 272.374 32.5853C282.854 32.5853 282.846 26.0273 293.322 26.0273C303.799 26.0273 303.803 32.5853 314.279 32.5853C324.756 32.5853 324.756 26.0273 335.228 26.0273C345.7 26.0273 345.704 32.5853 356.181 32.5853C366.657 32.5853 366.657 26.0273 377.138 26.0273C387.618 26.0273 387.614 32.5853 398.09 32.5853C408.567 32.5853 408.567 26.0273 419.043 26.0273C429.52 26.0273 429.524 32.5853 440 32.5853" stroke="white" stroke-miterlimit="10"/>
<path opacity="0.25" d="M0 23.1582C10.4764 23.1582 10.4764 29.7162 20.9528 29.7162C31.4292 29.7162 31.4292 23.1582 41.9014 23.1582C52.3737 23.1582 52.3778 29.7162 62.8542 29.7162C73.3306 29.7162 73.3306 23.1582 83.807 23.1582C94.2834 23.1582 94.2834 29.7162 104.756 29.7162C115.228 29.7162 115.232 23.1582 125.708 23.1582C136.185 23.1582 136.185 29.7162 146.661 29.7162C157.138 29.7162 157.138 23.1582 167.614 23.1582C178.09 23.1582 178.086 29.7162 188.563 29.7162C199.039 29.7162 199.039 23.1582 209.515 23.1582C219.992 23.1582 219.992 29.7162 230.464 29.7162C240.936 29.7162 240.94 23.1582 251.417 23.1582C261.893 23.1582 261.893 29.7162 272.374 29.7162C282.854 29.7162 282.846 23.1582 293.322 23.1582C303.799 23.1582 303.803 29.7162 314.279 29.7162C324.756 29.7162 324.756 23.1582 335.228 23.1582C345.7 23.1582 345.704 29.7162 356.181 29.7162C366.657 29.7162 366.657 23.1582 377.138 23.1582C387.618 23.1582 387.614 29.7162 398.09 29.7162C408.567 29.7162 408.567 23.1582 419.043 23.1582C429.52 23.1582 429.524 29.7162 440 29.7162" stroke="white" stroke-miterlimit="10"/>
<path opacity="0.25" d="M0 20.2891C10.4764 20.2891 10.4764 26.8471 20.9528 26.8471C31.4292 26.8471 31.4292 20.2891 41.9014 20.2891C52.3737 20.2891 52.3778 26.8471 62.8542 26.8471C73.3306 26.8471 73.3306 20.2891 83.807 20.2891C94.2834 20.2891 94.2834 26.8471 104.756 26.8471C115.228 26.8471 115.232 20.2891 125.708 20.2891C136.185 20.2891 136.185 26.8471 146.661 26.8471C157.138 26.8471 157.138 20.2891 167.614 20.2891C178.09 20.2891 178.086 26.8471 188.563 26.8471C199.039 26.8471 199.039 20.2891 209.515 20.2891C219.992 20.2891 219.992 26.8471 230.464 26.8471C240.936 26.8471 240.94 20.2891 251.417 20.2891C261.893 20.2891 261.893 26.8471 272.374 26.8471C282.854 26.8471 282.846 20.2891 293.322 20.2891C303.799 20.2891 303.803 26.8471 314.279 26.8471C324.756 26.8471 324.756 20.2891 335.228 20.2891C345.7 20.2891 345.704 26.8471 356.181 26.8471C366.657 26.8471 366.657 20.2891 377.138 20.2891C387.618 20.2891 387.614 26.8471 398.09 26.8471C408.567 26.8471 408.567 20.2891 419.043 20.2891C429.52 20.2891 429.524 26.8471 440 26.8471" stroke="white" stroke-miterlimit="10"/>
<path opacity="0.25" d="M0 17.4199C10.4764 17.4199 10.4764 23.9779 20.9528 23.9779C31.4292 23.9779 31.4292 17.4199 41.9014 17.4199C52.3737 17.4199 52.3778 23.9779 62.8542 23.9779C73.3306 23.9779 73.3306 17.4199 83.807 17.4199C94.2834 17.4199 94.2834 23.9779 104.756 23.9779C115.228 23.9779 115.232 17.4199 125.708 17.4199C136.185 17.4199 136.185 23.9779 146.661 23.9779C157.138 23.9779 157.138 17.4199 167.614 17.4199C178.09 17.4199 178.086 23.9779 188.563 23.9779C199.039 23.9779 199.039 17.4199 209.515 17.4199C219.992 17.4199 219.992 23.9779 230.464 23.9779C240.936 23.9779 240.94 17.4199 251.417 17.4199C261.893 17.4199 261.893 23.9779 272.374 23.9779C282.854 23.9779 282.846 17.4199 293.322 17.4199C303.799 17.4199 303.803 23.9779 314.279 23.9779C324.756 23.9779 324.756 17.4199 335.228 17.4199C345.7 17.4199 345.704 23.9779 356.181 23.9779C366.657 23.9779 366.657 17.4199 377.138 17.4199C387.618 17.4199 387.614 23.9779 398.09 23.9779C408.567 23.9779 408.567 17.4199 419.043 17.4199C429.52 17.4199 429.524 23.9779 440 23.9779" stroke="white" stroke-miterlimit="10"/>
<path opacity="0.25" d="M0 14.5508C10.4764 14.5508 10.4764 21.1088 20.9528 21.1088C31.4292 21.1088 31.4292 14.5508 41.9014 14.5508C52.3737 14.5508 52.3778 21.1088 62.8542 21.1088C73.3306 21.1088 73.3306 14.5508 83.807 14.5508C94.2834 14.5508 94.2834 21.1088 104.756 21.1088C115.228 21.1088 115.232 14.5508 125.708 14.5508C136.185 14.5508 136.185 21.1088 146.661 21.1088C157.138 21.1088 157.138 14.5508 167.614 14.5508C178.09 14.5508 178.086 21.1088 188.563 21.1088C199.039 21.1088 199.039 14.5508 209.515 14.5508C219.992 14.5508 219.992 21.1088 230.464 21.1088C240.936 21.1088 240.94 14.5508 251.417 14.5508C261.893 14.5508 261.893 21.1088 272.374 21.1088C282.854 21.1088 282.846 14.5508 293.322 14.5508C303.799 14.5508 303.803 21.1088 314.279 21.1088C324.756 21.1088 324.756 14.5508 335.228 14.5508C345.7 14.5508 345.704 21.1088 356.181 21.1088C366.657 21.1088 366.657 14.5508 377.138 14.5508C387.618 14.5508 387.614 21.1088 398.09 21.1088C408.567 21.1088 408.567 14.5508 419.043 14.5508C429.52 14.5508 429.524 21.1088 440 21.1088" stroke="white" stroke-miterlimit="10"/>
<path opacity="0.25" d="M0 11.6816C10.4764 11.6816 10.4764 18.2396 20.9528 18.2396C31.4292 18.2396 31.4292 11.6816 41.9014 11.6816C52.3737 11.6816 52.3778 18.2396 62.8542 18.2396C73.3306 18.2396 73.3306 11.6816 83.807 11.6816C94.2834 11.6816 94.2834 18.2396 104.756 18.2396C115.228 18.2396 115.232 11.6816 125.708 11.6816C136.185 11.6816 136.185 18.2396 146.661 18.2396C157.138 18.2396 157.138 11.6816 167.614 11.6816C178.09 11.6816 178.086 18.2396 188.563 18.2396C199.039 18.2396 199.039 11.6816 209.515 11.6816C219.992 11.6816 219.992 18.2396 230.464 18.2396C240.936 18.2396 240.94 11.6816 251.417 11.6816C261.893 11.6816 261.893 18.2396 272.374 18.2396C282.854 18.2396 282.846 11.6816 293.322 11.6816C303.799 11.6816 303.803 18.2396 314.279 18.2396C324.756 18.2396 324.756 11.6816 335.228 11.6816C345.7 11.6816 345.704 18.2396 356.181 18.2396C366.657 18.2396 366.657 11.6816 377.138 11.6816C387.618 11.6816 387.614 18.2396 398.09 18.2396C408.567 18.2396 408.567 11.6816 419.043 11.6816C429.52 11.6816 429.524 18.2396 440 18.2396" stroke="white" stroke-miterlimit="10"/>
<path opacity="0.25" d="M0 8.8125C10.4764 8.8125 10.4764 15.3705 20.9528 15.3705C31.4292 15.3705 31.4292 8.8125 41.9014 8.8125C52.3737 8.8125 52.3778 15.3705 62.8542 15.3705C73.3306 15.3705 73.3306 8.8125 83.807 8.8125C94.2834 8.8125 94.2834 15.3705 104.756 15.3705C115.228 15.3705 115.232 8.8125 125.708 8.8125C136.185 8.8125 136.185 15.3705 146.661 15.3705C157.138 15.3705 157.138 8.8125 167.614 8.8125C178.09 8.8125 178.086 15.3705 188.563 15.3705C199.039 15.3705 199.039 8.8125 209.515 8.8125C219.992 8.8125 219.992 15.3705 230.464 15.3705C240.936 15.3705 240.94 8.8125 251.417 8.8125C261.893 8.8125 261.893 15.3705 272.374 15.3705C282.854 15.3705 282.846 8.8125 293.322 8.8125C303.799 8.8125 303.803 15.3705 314.279 15.3705C324.756 15.3705 324.756 8.8125 335.228 8.8125C345.7 8.8125 345.704 15.3705 356.181 15.3705C366.657 15.3705 366.657 8.8125 377.138 8.8125C387.618 8.8125 387.614 15.3705 398.09 15.3705C408.567 15.3705 408.567 8.8125 419.043 8.8125C429.52 8.8125 429.524 15.3705 440 15.3705" stroke="white" stroke-miterlimit="10"/>
<path opacity="0.25" d="M0 5.94336C10.4764 5.94336 10.4764 12.5013 20.9528 12.5013C31.4292 12.5013 31.4292 5.94336 41.9014 5.94336C52.3737 5.94336 52.3778 12.5013 62.8542 12.5013C73.3306 12.5013 73.3306 5.94336 83.807 5.94336C94.2834 5.94336 94.2834 12.5013 104.756 12.5013C115.228 12.5013 115.232 5.94336 125.708 5.94336C136.185 5.94336 136.185 12.5013 146.661 12.5013C157.138 12.5013 157.138 5.94336 167.614 5.94336C178.09 5.94336 178.086 12.5013 188.563 12.5013C199.039 12.5013 199.039 5.94336 209.515 5.94336C219.992 5.94336 219.992 12.5013 230.464 12.5013C240.936 12.5013 240.94 5.94336 251.417 5.94336C261.893 5.94336 261.893 12.5013 272.374 12.5013C282.854 12.5013 282.846 5.94336 293.322 5.94336C303.799 5.94336 303.803 12.5013 314.279 12.5013C324.756 12.5013 324.756 5.94336 335.228 5.94336C345.7 5.94336 345.704 12.5013 356.181 12.5013C366.657 12.5013 366.657 5.94336 377.138 5.94336C387.618 5.94336 387.614 12.5013 398.09 12.5013C408.567 12.5013 408.567 5.94336 419.043 5.94336C429.52 5.94336 429.524 12.5013 440 12.5013" stroke="white" stroke-miterlimit="10"/>
<path opacity="0.25" d="M0 3.07422C10.4764 3.07422 10.4764 9.63221 20.9528 9.63221C31.4292 9.63221 31.4292 3.07422 41.9014 3.07422C52.3737 3.07422 52.3778 9.63221 62.8542 9.63221C73.3306 9.63221 73.3306 3.07422 83.807 3.07422C94.2834 3.07422 94.2834 9.63221 104.756 9.63221C115.228 9.63221 115.232 3.07422 125.708 3.07422C136.185 3.07422 136.185 9.63221 146.661 9.63221C157.138 9.63221 157.138 3.07422 167.614 3.07422C178.09 3.07422 178.086 9.63221 188.563 9.63221C199.039 9.63221 199.039 3.07422 209.515 3.07422C219.992 3.07422 219.992 9.63221 230.464 9.63221C240.936 9.63221 240.94 3.07422 251.417 3.07422C261.893 3.07422 261.893 9.63221 272.374 9.63221C282.854 9.63221 282.846 3.07422 293.322 3.07422C303.799 3.07422 303.803 9.63221 314.279 9.63221C324.756 9.63221 324.756 3.07422 335.228 3.07422C345.7 3.07422 345.704 9.63221 356.181 9.63221C366.657 9.63221 366.657 3.07422 377.138 3.07422C387.618 3.07422 387.614 9.63221 398.09 9.63221C408.567 9.63221 408.567 3.07422 419.043 3.07422C429.52 3.07422 429.524 9.63221 440 9.63221" stroke="white" stroke-miterlimit="10"/>
<path opacity="0.25" d="M0 0.205078C10.4764 0.205078 10.4764 6.76307 20.9528 6.76307C31.4292 6.76307 31.4292 0.205078 41.9014 0.205078C52.3737 0.205078 52.3778 6.76307 62.8542 6.76307C73.3306 6.76307 73.3306 0.205078 83.807 0.205078C94.2834 0.205078 94.2834 6.76307 104.756 6.76307C115.228 6.76307 115.232 0.205078 125.708 0.205078C136.185 0.205078 136.185 6.76307 146.661 6.76307C157.138 6.76307 157.138 0.205078 167.614 0.205078C178.09 0.205078 178.086 6.76307 188.563 6.76307C199.039 6.76307 199.039 0.205078 209.515 0.205078C219.992 0.205078 219.992 6.76307 230.464 6.76307C240.936 6.76307 240.94 0.205078 251.417 0.205078C261.893 0.205078 261.893 6.76307 272.374 6.76307C282.854 6.76307 282.846 0.205078 293.322 0.205078C303.799 0.205078 303.803 6.76307 314.279 6.76307C324.756 6.76307 324.756 0.205078 335.228 0.205078C345.7 0.205078 345.704 6.76307 356.181 6.76307C366.657 6.76307 366.657 0.205078 377.138 0.205078C387.618 0.205078 387.614 6.76307 398.09 6.76307C408.567 6.76307 408.567 0.205078 419.043 0.205078C429.52 0.205078 429.524 6.76307 440 6.76307" stroke="white" stroke-miterlimit="10"/>
</g>
</g>
</g>
<defs>
<filter id="filter0_f_212_693" x="-103.242" y="-153.24" width="456.48" height="456.48" filterUnits="userSpaceOnUse" color-interpolation-filters="sRGB">
<feFlood flood-opacity="0" result="BackgroundImageFix"/>
<feBlend mode="normal" in="SourceGraphic" in2="BackgroundImageFix" result="shape"/>
<feGaussianBlur stdDeviation="50" result="effect1_foregroundBlur_212_693"/>
</filter>
<filter id="filter1_f_212_693" x="-26.0698" y="-76.0522" width="302.124" height="302.123" filterUnits="userSpaceOnUse" color-interpolation-filters="sRGB">
<feFlood flood-opacity="0" result="BackgroundImageFix"/>
<feBlend mode="normal" in="SourceGraphic" in2="BackgroundImageFix" result="shape"/>
<feGaussianBlur stdDeviation="37.5" result="effect1_foregroundBlur_212_693"/>
</filter>
<linearGradient id="paint0_linear_212_693" x1="5.5974" y1="45.0867" x2="248.429" y2="98.1624" gradientUnits="userSpaceOnUse">
<stop stop-color="#5076FF"/>
<stop offset="1" stop-color="#AA76FF"/>
</linearGradient>
<linearGradient id="paint1_linear_212_693" x1="29.8993" y1="53.7438" x2="230.949" y2="98.6907" gradientUnits="userSpaceOnUse">
<stop stop-color="#5076FF"/>
<stop offset="1" stop-color="#AA76FF"/>
</linearGradient>
<radialGradient id="paint2_radial_212_693" cx="0" cy="0" r="1" gradientUnits="userSpaceOnUse" gradientTransform="translate(125 74.9986) rotate(90) scale(51.7219)">
<stop offset="0.34375" stop-color="#894EFE"/>
<stop offset="0.947917" stop-color="#5F19EC"/>
</radialGradient>
<clipPath id="clip0_212_693">
<rect width="249" height="150" fill="white"/>
</clipPath>
<clipPath id="clip1_212_693">
<rect width="440" height="265.189" fill="white"/>
</clipPath>
</defs>
</svg>
