<svg width="1022" height="402" viewBox="0 0 1022 402" fill="none" xmlns="http://www.w3.org/2000/svg">
<path d="M18.7178 65.175H109.193C129.726 65.175 145.951 70.3083 157.868 80.575C169.784 90.6583 175.743 106.15 175.743 127.05C175.743 140.25 172.901 151.708 167.218 161.425C161.718 170.958 153.926 178.292 143.843 183.425C133.943 188.558 122.393 191.125 109.193 191.125H58.3178V275H18.7178V65.175ZM103.693 156.475C114.326 156.475 122.393 154.092 127.893 149.325C133.576 144.558 136.418 137.592 136.418 128.425C136.418 119.442 133.576 112.567 127.893 107.8C122.209 103.033 114.143 100.65 103.693 100.65H58.3178V156.475H103.693ZM198.847 275V120.725H235.972V275H198.847ZM217.547 103.675C211.13 103.675 205.722 101.75 201.322 97.9C196.922 94.05 194.722 88.9167 194.722 82.5C194.722 76.45 196.922 71.4083 201.322 67.375C205.722 63.3417 211.13 61.325 217.547 61.325C223.78 61.325 229.097 63.3417 233.497 67.375C238.08 71.4083 240.372 76.45 240.372 82.5C240.372 88.7333 238.172 93.8667 233.772 97.9C229.372 101.75 223.964 103.675 217.547 103.675ZM317.046 275C293.029 275 281.021 263.725 281.021 241.175V150.425H258.195V120.725H281.021V65.175H318.146V120.725H347.846V150.425H318.146V229.9C318.146 234.667 318.879 238.242 320.346 240.625C321.996 243.008 325.479 244.2 330.795 244.2H347.571V275H317.046ZM442.452 278.025C427.052 278.025 413.394 274.633 401.477 267.85C389.744 261.067 380.577 251.533 373.977 239.25C367.377 226.967 364.077 212.85 364.077 196.9C364.077 181.5 367.377 167.75 373.977 155.65C380.577 143.55 389.744 134.2 401.477 127.6C413.394 120.817 427.052 117.425 442.452 117.425C460.969 117.425 476.644 122.192 489.477 131.725C502.494 141.075 510.927 153.817 514.777 169.95H474.352C471.969 162.8 468.027 157.3 462.527 153.45C457.027 149.6 450.335 147.675 442.452 147.675C430.352 147.675 420.544 152.167 413.027 161.15C405.694 170.133 402.027 182.05 402.027 196.9C402.027 212.3 405.694 224.675 413.027 234.025C420.544 243.192 430.352 247.775 442.452 247.775C451.252 247.775 458.402 245.667 463.902 241.45C469.402 237.05 473.16 230.908 475.177 223.025H515.327C511.844 240.075 503.502 253.55 490.302 263.45C477.102 273.167 461.152 278.025 442.452 278.025ZM540.378 65.175H577.503V125.675C577.503 128.425 577.136 130.717 576.403 132.55C575.853 134.383 574.844 136.308 573.378 138.325L577.228 141.075C582.911 132.458 589.053 126.408 595.653 122.925C602.436 119.258 610.319 117.425 619.303 117.425C643.503 117.425 659.544 126.042 667.428 143.275C670.361 149.325 672.194 155.467 672.928 161.7C673.661 167.933 674.028 176.092 674.028 186.175V275H636.903V185.625C636.903 177.742 636.261 171.417 634.978 166.65C633.878 161.7 632.044 157.758 629.478 154.825C625.078 150.242 618.569 147.95 609.953 147.95C599.503 147.95 591.619 151.067 586.303 157.3C583.186 160.967 580.894 165.825 579.428 171.875C578.144 177.925 577.503 186.083 577.503 196.35V275H540.378V65.175ZM777.832 278.025C762.248 278.025 748.498 274.633 736.582 267.85C724.665 261.067 715.407 251.717 708.807 239.8C702.39 227.7 699.182 214.042 699.182 198.825C699.182 184.708 702.023 171.508 707.707 159.225C713.573 146.758 722.282 136.675 733.832 128.975C745.565 121.275 759.865 117.425 776.732 117.425C790.665 117.425 803.498 120.358 815.232 126.225C826.965 131.908 836.407 140.8 843.557 152.9C850.707 164.817 854.282 179.667 854.282 197.45V205.425H756.382C755.282 205.425 752.257 205.425 747.307 205.425C742.357 205.425 738.415 205.15 735.482 204.6L734.382 208.725C735.848 209.092 736.948 209.825 737.682 210.925C738.598 212.025 739.332 213.583 739.882 215.6C741.348 219.45 742.54 222.108 743.457 223.575C747.123 230.725 751.982 236.317 758.032 240.35C764.265 244.2 771.323 246.125 779.207 246.125C787.64 246.125 794.882 244.017 800.932 239.8C806.982 235.4 811.29 229.808 813.857 223.025H851.807C846.857 239.342 838.148 252.633 825.682 262.9C813.215 272.983 797.265 278.025 777.832 278.025ZM738.782 181.775C741.532 180.125 744.007 179.025 746.207 178.475C748.407 177.925 750.882 177.65 753.632 177.65H801.482C804.415 177.65 806.982 177.925 809.182 178.475C811.565 179.025 814.223 180.125 817.157 181.775L819.357 177.925C818.073 177.192 817.157 176.55 816.607 176C816.057 175.267 815.598 174.533 815.232 173.8C815.048 173.067 814.957 172.608 814.957 172.425C814.223 169.308 812.757 166.283 810.557 163.35C807.073 158.033 802.49 154 796.807 151.25C791.123 148.317 784.798 146.85 777.832 146.85C770.865 146.85 764.54 148.225 758.857 150.975C753.357 153.725 748.865 157.85 745.382 163.35C742.998 166.283 741.44 169.308 740.707 172.425C740.707 172.608 740.523 173.158 740.157 174.075C739.79 174.808 739.332 175.542 738.782 176.275C738.232 176.825 737.407 177.375 736.307 177.925L738.782 181.775ZM947.135 278.025C928.068 278.025 911.568 273.442 897.635 264.275C883.702 255.108 875.543 241.358 873.16 223.025H909.735C912.118 231.275 916.518 237.692 922.935 242.275C929.352 246.675 937.327 248.875 946.86 248.875C954.927 248.875 961.435 247.317 966.385 244.2C971.518 241.083 974.085 236.683 974.085 231C974.085 224.767 971.06 220.275 965.01 217.525C959.143 214.775 949.977 212.208 937.51 209.825C925.593 207.442 915.693 204.875 907.81 202.125C899.927 199.375 893.235 194.975 887.735 188.925C882.235 182.692 879.485 174.258 879.485 163.625C879.485 148.408 885.077 136.95 896.26 129.25C907.627 121.367 921.927 117.425 939.16 117.425C957.31 117.425 972.343 122.008 984.26 131.175C996.36 140.342 1003.78 153.267 1006.53 169.95H971.61C969.593 161.883 965.652 156.017 959.785 152.35C953.918 148.5 946.952 146.575 938.885 146.575C931.552 146.575 925.685 148.042 921.285 150.975C917.068 153.725 914.96 157.483 914.96 162.25C914.96 167.933 917.802 171.967 923.485 174.35C929.168 176.733 938.152 179.117 950.435 181.5C963.085 183.883 973.352 186.45 981.235 189.2C989.302 191.767 996.177 196.167 1001.86 202.4C1007.73 208.633 1010.66 217.25 1010.66 228.25C1010.66 243.467 1004.98 255.567 993.61 264.55C982.427 273.533 966.935 278.025 947.135 278.025Z" fill="white"/>
<path d="M317.028 385.77C313.201 385.77 310.098 384.767 307.718 382.76C305.338 380.707 304.148 377.86 304.148 374.22C304.148 370.3 305.641 367.313 308.628 365.26C310.774 363.767 313.831 362.647 317.798 361.9L329.488 359.73C329.488 357.397 328.858 355.553 327.598 354.2C326.431 352.94 324.681 352.31 322.348 352.31C320.528 352.31 318.918 352.847 317.518 353.92C316.164 354.993 315.324 356.44 314.998 358.26H305.618C306.271 353.92 308.184 350.607 311.358 348.32C314.531 346.033 318.218 344.89 322.418 344.89C324.798 344.89 327.014 345.24 329.068 345.94C331.121 346.593 332.871 347.573 334.318 348.88C335.764 350.14 336.814 351.61 337.468 353.29C338.121 354.97 338.518 356.65 338.658 358.33C338.844 360.01 338.938 362.087 338.938 364.56V385H329.488V383.88C329.488 382.667 329.791 381.43 330.398 380.17L329.348 379.61C328.508 381.337 327.341 382.69 325.848 383.67C323.748 385.07 320.808 385.77 317.028 385.77ZM319.338 378.35C321.064 378.35 322.744 377.977 324.378 377.23C325.871 376.53 327.061 375.503 327.948 374.15C328.368 373.45 328.694 372.773 328.928 372.12C329.161 371.42 329.418 370.463 329.698 369.25C329.791 368.69 329.931 368.293 330.118 368.06C330.351 367.78 330.678 367.617 331.098 367.57L330.888 366.45C327.154 367.197 324.751 367.687 323.678 367.92L320.318 368.55C317.798 369.017 315.978 369.763 314.858 370.79C314.018 371.63 313.598 372.657 313.598 373.87C313.598 375.317 314.111 376.437 315.138 377.23C316.211 377.977 317.611 378.35 319.338 378.35ZM386.915 385.98C383.182 385.98 379.612 385.373 376.205 384.16C372.799 382.947 369.905 380.987 367.525 378.28C365.192 375.527 363.815 371.98 363.395 367.64H373.825C374.619 371.14 376.205 373.637 378.585 375.13C380.965 376.623 383.765 377.37 386.985 377.37C389.925 377.37 392.282 376.763 394.055 375.55C395.829 374.29 396.715 372.447 396.715 370.02C396.715 368.293 396.155 366.917 395.035 365.89C393.915 364.817 392.492 364.023 390.765 363.51C389.085 362.95 386.775 362.343 383.835 361.69C379.822 360.803 376.579 359.893 374.105 358.96C371.679 358.027 369.579 356.557 367.805 354.55C366.032 352.543 365.145 349.79 365.145 346.29C365.145 342.93 365.962 340.083 367.595 337.75C369.229 335.37 371.469 333.597 374.315 332.43C377.162 331.217 380.405 330.61 384.045 330.61C387.592 330.61 390.882 331.24 393.915 332.5C396.949 333.713 399.492 335.603 401.545 338.17C403.599 340.69 404.905 343.793 405.465 347.48H395.175C394.522 344.727 393.169 342.673 391.115 341.32C389.109 339.92 386.682 339.22 383.835 339.22C381.222 339.22 379.122 339.78 377.535 340.9C375.949 341.973 375.155 343.49 375.155 345.45C375.155 346.99 375.692 348.227 376.765 349.16C377.839 350.093 379.169 350.817 380.755 351.33C382.342 351.843 384.559 352.427 387.405 353.08C391.465 353.967 394.779 354.9 397.345 355.88C399.959 356.86 402.199 358.447 404.065 360.64C405.932 362.833 406.865 365.797 406.865 369.53C406.865 374.617 405.092 378.63 401.545 381.57C398.045 384.51 393.169 385.98 386.915 385.98ZM425.996 385C419.882 385 416.826 382.13 416.826 376.39V353.29H411.016V345.73H416.826V331.59H426.276V345.73H433.836V353.29H426.276V373.52C426.276 374.733 426.462 375.643 426.836 376.25C427.256 376.857 428.142 377.16 429.496 377.16H433.766V385H425.996ZM451.533 385.77C447.706 385.77 444.603 384.767 442.223 382.76C439.843 380.707 438.653 377.86 438.653 374.22C438.653 370.3 440.146 367.313 443.133 365.26C445.279 363.767 448.336 362.647 452.303 361.9L463.993 359.73C463.993 357.397 463.363 355.553 462.103 354.2C460.936 352.94 459.186 352.31 456.853 352.31C455.033 352.31 453.423 352.847 452.023 353.92C450.669 354.993 449.829 356.44 449.503 358.26H440.123C440.776 353.92 442.689 350.607 445.863 348.32C449.036 346.033 452.723 344.89 456.923 344.89C459.303 344.89 461.519 345.24 463.573 345.94C465.626 346.593 467.376 347.573 468.823 348.88C470.269 350.14 471.319 351.61 471.973 353.29C472.626 354.97 473.023 356.65 473.163 358.33C473.349 360.01 473.443 362.087 473.443 364.56V385H463.993V383.88C463.993 382.667 464.296 381.43 464.903 380.17L463.853 379.61C463.013 381.337 461.846 382.69 460.353 383.67C458.253 385.07 455.313 385.77 451.533 385.77ZM453.843 378.35C455.569 378.35 457.249 377.977 458.883 377.23C460.376 376.53 461.566 375.503 462.453 374.15C462.873 373.45 463.199 372.773 463.433 372.12C463.666 371.42 463.923 370.463 464.203 369.25C464.296 368.69 464.436 368.293 464.623 368.06C464.856 367.78 465.183 367.617 465.603 367.57L465.393 366.45C461.659 367.197 459.256 367.687 458.183 367.92L454.823 368.55C452.303 369.017 450.483 369.763 449.363 370.79C448.523 371.63 448.103 372.657 448.103 373.87C448.103 375.317 448.616 376.437 449.643 377.23C450.716 377.977 452.116 378.35 453.843 378.35ZM481.27 345.73H490.72V346.99C490.72 347.737 490.65 348.343 490.51 348.81C490.37 349.277 490.09 349.743 489.67 350.21L490.65 350.91C492.097 348.763 493.707 347.223 495.48 346.29C497.253 345.357 499.4 344.89 501.92 344.89H503.04V353.99H500.87C497.883 353.99 495.55 354.783 493.87 356.37C492.797 357.443 492.003 358.82 491.49 360.5C490.977 362.133 490.72 364.233 490.72 366.8V385H481.27V345.73ZM520.654 385C514.54 385 511.484 382.13 511.484 376.39V353.29H505.674V345.73H511.484V331.59H520.934V345.73H528.494V353.29H520.934V373.52C520.934 374.733 521.12 375.643 521.494 376.25C521.914 376.857 522.8 377.16 524.154 377.16H528.424V385H520.654ZM552.645 385.77C548.679 385.77 545.179 384.907 542.145 383.18C539.112 381.453 536.755 379.073 535.075 376.04C533.442 372.96 532.625 369.483 532.625 365.61C532.625 362.017 533.349 358.657 534.795 355.53C536.289 352.357 538.505 349.79 541.445 347.83C544.432 345.87 548.072 344.89 552.365 344.89C555.912 344.89 559.179 345.637 562.165 347.13C565.152 348.577 567.555 350.84 569.375 353.92C571.195 356.953 572.105 360.733 572.105 365.26V367.29H547.185C546.905 367.29 546.135 367.29 544.875 367.29C543.615 367.29 542.612 367.22 541.865 367.08L541.585 368.13C541.959 368.223 542.239 368.41 542.425 368.69C542.659 368.97 542.845 369.367 542.985 369.88C543.359 370.86 543.662 371.537 543.895 371.91C544.829 373.73 546.065 375.153 547.605 376.18C549.192 377.16 550.989 377.65 552.995 377.65C555.142 377.65 556.985 377.113 558.525 376.04C560.065 374.92 561.162 373.497 561.815 371.77H571.475C570.215 375.923 567.999 379.307 564.825 381.92C561.652 384.487 557.592 385.77 552.645 385.77ZM542.705 361.27C543.405 360.85 544.035 360.57 544.595 360.43C545.155 360.29 545.785 360.22 546.485 360.22H558.665C559.412 360.22 560.065 360.29 560.625 360.43C561.232 360.57 561.909 360.85 562.655 361.27L563.215 360.29C562.889 360.103 562.655 359.94 562.515 359.8C562.375 359.613 562.259 359.427 562.165 359.24C562.119 359.053 562.095 358.937 562.095 358.89C561.909 358.097 561.535 357.327 560.975 356.58C560.089 355.227 558.922 354.2 557.475 353.5C556.029 352.753 554.419 352.38 552.645 352.38C550.872 352.38 549.262 352.73 547.815 353.43C546.415 354.13 545.272 355.18 544.385 356.58C543.779 357.327 543.382 358.097 543.195 358.89C543.195 358.937 543.149 359.077 543.055 359.31C542.962 359.497 542.845 359.683 542.705 359.87C542.565 360.01 542.355 360.15 542.075 360.29L542.705 361.27ZM594.551 385.77C591.144 385.77 588.134 384.907 585.521 383.18C582.907 381.453 580.877 379.05 579.431 375.97C577.984 372.843 577.261 369.297 577.261 365.33C577.261 361.363 577.984 357.84 579.431 354.76C580.877 351.633 582.907 349.207 585.521 347.48C588.134 345.753 591.144 344.89 594.551 344.89C597.071 344.89 599.194 345.357 600.921 346.29C602.647 347.177 604.257 348.717 605.751 350.91L606.731 350.21C606.357 349.697 606.077 349.207 605.891 348.74C605.751 348.273 605.681 347.69 605.681 346.99V331.59H615.131V385H605.681V383.74C605.681 383.04 605.751 382.457 605.891 381.99C606.077 381.477 606.357 380.963 606.731 380.45L605.751 379.82C604.257 382.013 602.647 383.553 600.921 384.44C599.194 385.327 597.071 385.77 594.551 385.77ZM596.721 377.65C599.707 377.65 602.134 376.507 604.001 374.22C605.914 371.933 606.871 368.97 606.871 365.33C606.871 361.69 605.914 358.727 604.001 356.44C602.134 354.153 599.707 353.01 596.721 353.01C593.734 353.01 591.331 354.177 589.511 356.51C587.691 358.797 586.781 361.737 586.781 365.33C586.781 368.923 587.691 371.887 589.511 374.22C591.331 376.507 593.734 377.65 596.721 377.65ZM643.759 385.98C636.386 385.98 630.949 384.183 627.449 380.59C623.949 376.95 622.199 371.957 622.199 365.61V331.59H632.349V365.61C632.349 369.203 633.236 372.003 635.009 374.01C636.782 375.97 639.699 376.95 643.759 376.95C647.819 376.95 650.736 375.97 652.509 374.01C654.282 372.003 655.169 369.203 655.169 365.61V331.59H665.319V365.61C665.319 371.957 663.546 376.95 659.999 380.59C656.499 384.183 651.086 385.98 643.759 385.98ZM694.25 344.96C697.657 344.96 700.667 345.823 703.28 347.55C705.894 349.277 707.924 351.703 709.37 354.83C710.817 357.91 711.54 361.433 711.54 365.4C711.54 369.367 710.817 372.913 709.37 376.04C707.924 379.12 705.894 381.523 703.28 383.25C700.667 384.977 697.657 385.84 694.25 385.84C691.73 385.84 689.607 385.397 687.88 384.51C686.154 383.577 684.544 382.013 683.05 379.82L682.07 380.52C682.444 381.033 682.7 381.523 682.84 381.99C683.027 382.457 683.12 383.04 683.12 383.74V399.14H673.67V345.73H683.12V346.99C683.12 347.69 683.027 348.297 682.84 348.81C682.7 349.277 682.444 349.767 682.07 350.28L683.05 350.91C684.544 348.717 686.154 347.177 687.88 346.29C689.607 345.403 691.73 344.96 694.25 344.96ZM692.08 353.08C689.094 353.08 686.644 354.223 684.73 356.51C682.864 358.797 681.93 361.76 681.93 365.4C681.93 369.04 682.864 372.003 684.73 374.29C686.644 376.577 689.094 377.72 692.08 377.72C695.067 377.72 697.47 376.577 699.29 374.29C701.11 371.957 702.02 368.993 702.02 365.4C702.02 361.807 701.11 358.867 699.29 356.58C697.47 354.247 695.067 353.08 692.08 353.08ZM736.751 385V345.73H746.201V385H736.751ZM741.511 341.39C739.878 341.39 738.501 340.9 737.381 339.92C736.261 338.94 735.701 337.633 735.701 336C735.701 334.46 736.261 333.177 737.381 332.15C738.501 331.123 739.878 330.61 741.511 330.61C743.098 330.61 744.451 331.123 745.571 332.15C746.738 333.177 747.321 334.46 747.321 336C747.321 337.587 746.761 338.893 745.641 339.92C744.521 340.9 743.145 341.39 741.511 341.39ZM754.518 345.73H763.968V346.99C763.968 347.737 763.898 348.343 763.758 348.81C763.618 349.277 763.338 349.743 762.918 350.21L763.898 350.91C765.392 348.717 766.978 347.177 768.658 346.29C770.385 345.357 772.392 344.89 774.678 344.89C780.745 344.89 784.828 347.083 786.928 351.47C787.628 353.01 788.072 354.573 788.258 356.16C788.445 357.747 788.538 359.823 788.538 362.39V385H779.158V362.25C779.158 358.47 778.505 355.857 777.198 354.41C776.078 353.243 774.422 352.66 772.228 352.66C769.615 352.66 767.632 353.453 766.278 355.04C765.485 355.973 764.902 357.233 764.528 358.82C764.155 360.36 763.968 362.413 763.968 364.98V385H754.518V345.73ZM796.621 385V345.73H806.071V385H796.621ZM801.381 341.39C799.748 341.39 798.371 340.9 797.251 339.92C796.131 338.94 795.571 337.633 795.571 336C795.571 334.46 796.131 333.177 797.251 332.15C798.371 331.123 799.748 330.61 801.381 330.61C802.968 330.61 804.321 331.123 805.441 332.15C806.608 333.177 807.191 334.46 807.191 336C807.191 337.587 806.631 338.893 805.511 339.92C804.391 340.9 803.014 341.39 801.381 341.39ZM826.708 385C820.595 385 817.538 382.13 817.538 376.39V353.29H811.728V345.73H817.538V331.59H826.988V345.73H834.548V353.29H826.988V373.52C826.988 374.733 827.175 375.643 827.548 376.25C827.968 376.857 828.855 377.16 830.208 377.16H834.478V385H826.708ZM840.905 385V345.73H850.355V385H840.905ZM845.665 341.39C844.031 341.39 842.655 340.9 841.535 339.92C840.415 338.94 839.855 337.633 839.855 336C839.855 334.46 840.415 333.177 841.535 332.15C842.655 331.123 844.031 330.61 845.665 330.61C847.251 330.61 848.605 331.123 849.725 332.15C850.891 333.177 851.475 334.46 851.475 336C851.475 337.587 850.915 338.893 849.795 339.92C848.675 340.9 847.298 341.39 845.665 341.39ZM870.012 385.77C866.185 385.77 863.082 384.767 860.702 382.76C858.322 380.707 857.132 377.86 857.132 374.22C857.132 370.3 858.625 367.313 861.612 365.26C863.758 363.767 866.815 362.647 870.782 361.9L882.472 359.73C882.472 357.397 881.842 355.553 880.582 354.2C879.415 352.94 877.665 352.31 875.332 352.31C873.512 352.31 871.902 352.847 870.502 353.92C869.148 354.993 868.308 356.44 867.982 358.26H858.602C859.255 353.92 861.168 350.607 864.342 348.32C867.515 346.033 871.202 344.89 875.402 344.89C877.782 344.89 879.998 345.24 882.052 345.94C884.105 346.593 885.855 347.573 887.302 348.88C888.748 350.14 889.798 351.61 890.452 353.29C891.105 354.97 891.502 356.65 891.642 358.33C891.828 360.01 891.922 362.087 891.922 364.56V385H882.472V383.88C882.472 382.667 882.775 381.43 883.382 380.17L882.332 379.61C881.492 381.337 880.325 382.69 878.832 383.67C876.732 385.07 873.792 385.77 870.012 385.77ZM872.322 378.35C874.048 378.35 875.728 377.977 877.362 377.23C878.855 376.53 880.045 375.503 880.932 374.15C881.352 373.45 881.678 372.773 881.912 372.12C882.145 371.42 882.402 370.463 882.682 369.25C882.775 368.69 882.915 368.293 883.102 368.06C883.335 367.78 883.662 367.617 884.082 367.57L883.872 366.45C880.138 367.197 877.735 367.687 876.662 367.92L873.302 368.55C870.782 369.017 868.962 369.763 867.842 370.79C867.002 371.63 866.582 372.657 866.582 373.87C866.582 375.317 867.095 376.437 868.122 377.23C869.195 377.977 870.595 378.35 872.322 378.35ZM912.069 385C905.956 385 902.899 382.13 902.899 376.39V353.29H897.089V345.73H902.899V331.59H912.349V345.73H919.909V353.29H912.349V373.52C912.349 374.733 912.536 375.643 912.909 376.25C913.329 376.857 914.216 377.16 915.569 377.16H919.839V385H912.069ZM926.266 385V345.73H935.716V385H926.266ZM931.026 341.39C929.393 341.39 928.016 340.9 926.896 339.92C925.776 338.94 925.216 337.633 925.216 336C925.216 334.46 925.776 333.177 926.896 332.15C928.016 331.123 929.393 330.61 931.026 330.61C932.613 330.61 933.966 331.123 935.086 332.15C936.253 333.177 936.836 334.46 936.836 336C936.836 337.587 936.276 338.893 935.156 339.92C934.036 340.9 932.659 341.39 931.026 341.39ZM940.603 345.73H950.683L957.123 365.4C957.543 366.753 957.823 367.967 957.963 369.04C958.15 370.113 958.29 371.35 958.383 372.75H959.223C959.223 372.47 959.27 371.863 959.363 370.93C959.456 369.95 959.596 369.017 959.783 368.13C959.97 367.197 960.203 366.287 960.483 365.4L967.063 345.73H977.143L962.583 385H955.093L940.603 345.73ZM999.487 385.77C995.52 385.77 992.02 384.907 988.987 383.18C985.954 381.453 983.597 379.073 981.917 376.04C980.284 372.96 979.467 369.483 979.467 365.61C979.467 362.017 980.19 358.657 981.637 355.53C983.13 352.357 985.347 349.79 988.287 347.83C991.274 345.87 994.914 344.89 999.207 344.89C1002.75 344.89 1006.02 345.637 1009.01 347.13C1011.99 348.577 1014.4 350.84 1016.22 353.92C1018.04 356.953 1018.95 360.733 1018.95 365.26V367.29H994.027C993.747 367.29 992.977 367.29 991.717 367.29C990.457 367.29 989.454 367.22 988.707 367.08L988.427 368.13C988.8 368.223 989.08 368.41 989.267 368.69C989.5 368.97 989.687 369.367 989.827 369.88C990.2 370.86 990.504 371.537 990.737 371.91C991.67 373.73 992.907 375.153 994.447 376.18C996.034 377.16 997.83 377.65 999.837 377.65C1001.98 377.65 1003.83 377.113 1005.37 376.04C1006.91 374.92 1008 373.497 1008.66 371.77H1018.32C1017.06 375.923 1014.84 379.307 1011.67 381.92C1008.49 384.487 1004.43 385.77 999.487 385.77ZM989.547 361.27C990.247 360.85 990.877 360.57 991.437 360.43C991.997 360.29 992.627 360.22 993.327 360.22H1005.51C1006.25 360.22 1006.91 360.29 1007.47 360.43C1008.07 360.57 1008.75 360.85 1009.5 361.27L1010.06 360.29C1009.73 360.103 1009.5 359.94 1009.36 359.8C1009.22 359.613 1009.1 359.427 1009.01 359.24C1008.96 359.053 1008.94 358.937 1008.94 358.89C1008.75 358.097 1008.38 357.327 1007.82 356.58C1006.93 355.227 1005.76 354.2 1004.32 353.5C1002.87 352.753 1001.26 352.38 999.487 352.38C997.714 352.38 996.104 352.73 994.657 353.43C993.257 354.13 992.114 355.18 991.227 356.58C990.62 357.327 990.224 358.097 990.037 358.89C990.037 358.937 989.99 359.077 989.897 359.31C989.804 359.497 989.687 359.683 989.547 359.87C989.407 360.01 989.197 360.15 988.917 360.29L989.547 361.27Z" fill="white"/>
</svg>
